<?xml version="1.0" encoding="UTF-8"?>
<svg viewBox="0 0 1024 768" xmlns="http://www.w3.org/2000/svg">
 <g fill-rule="evenodd">
  <path d="m240 114v-1l6 2q6 1 8 3t2 2h4q4 0 4 0v-1h1v1h1l5-3q6-3 7-3h8q9 0 10 1l1 1h2v3q0 3-1 4-2 1-1 3l1 1v1h3v1h1v1l6-2q5-2 10-2h4v1q0 1 1 1t1 1q1 1 2 0 2-1 1 1-1 1-1 1v1h-1l1 1h1v2h-1q0 1-8 4l-9 3-1 1-2 1h-3v1h-1q-2 1-17 5t-37 7l-23 3h-9t-3-1-4 0l-1 1h-3l-1-1h-1v-1h-3v-1h1v-1h1v-1h1v-1h1l1 1 1 1h5q5 0 7-3t3-3v-1h1q0-1 2-1h1l3-2q4 0 14-2 9 0 10-1l1-1h2v-1h1v-1l1-1 1-1v-4h-1v-1h-1v-1h-1v-1h-1v-1h-1l-2-1q-2-1-14-2l-12-1v-1h3l2-1h9l2-1 2-1h1v-1h1v-1h1l-1-1-1-1t-1-2q-1-1-2-1t-1-1z" fill="#ddc5c2" stroke="#ddc5c2"/>
  <path d="m248 437v-1l2 1q3 1 3 3 1 1 1 3v2q-1-1-2-1-2-2-2-4t-1-2-1-1z" fill="#edaa6e" stroke="#edaa6e"/>
  <path d="m542 390h2q0 1 0 2 0 2 0 3v1l1 1v1h-1t-2 3l-3 2v-3l-1-2v-1h-1l1-2q0-1 1-2 1 0 1-1 1-2 2-2z" fill="#a54d35" stroke="#a54d35"/>
  <path d="m996 394l-8-3 10 1q10 2 12 1h2v1h-1q-1 0-2 2-1 0-3 1-3 1-10-3z" fill="#7c7671" stroke="#7c7671"/>
  <path d="m33 141l-1-4 2 1q2 1 2 2t1 1l1 1h1v1h1v1q1 0 2 1h1q0 1 1 1l5 6q5 6 5 7h1l1 3q2 3 1 3v1h-1v2h-1v1h-1v2l-1 3-1 3-1-1h-1v-1h-1v-1h-1v-1h-1v-1h-1v-1t-3-3l-2-2v-1q-1-1-3-9l-2-8q0-1-1-1v-1q-1-1-2-5z" fill="#a89384" stroke="#a89384"/>
  <path d="m390 278h2q1 0 2 2 0 2 1 2t5 8q3 8 4 9 2 1 2 1h1v1h1v2h1v1h2v1h1v1h2l5 8q5 7 5 11t-3 9q-4 5-7 6-2 0-4 1h-4q-1-1-6-2-4-1-8-1-3 2-5 0-1-2-4 2l-3 4-1 1-1 1-1 1v1h-1t-6 4l-7 2-1 1-2 1h-1l-1 1h-1v-1h-1v-1l1-1 1-2v-2h-1v-2l4-1q5-2 5-2v-1h1v-1h1v-3h-1v-1h-1v-2h-1v-1h-3q-2 0-2 0-1 0-11 0h-11v-2h-1v-1h1v-1h-1v-1h-1v-1l-1-1-1-1v-3h-1v-1h2v-1h1v-1h1l9 1q9 1 22-6 14-6 14-15 0-10 3-16 3-5 3-6 0 0 1 0v-1q1 0 1-1z" fill="#ebd9c9" stroke="#ebd9c9"/>
  <path d="m293 90v-1l3 1q4 2 6 2h1l10 4q11 5 15 10 5 6 6 6t1 1v1h-1q-1 0-1-1-1 0-4-3l-4-2v-1h-1v-1h-2v2q0 3 0 4v2l1 1v1h-2v-1h-1v-1h-1v-1h-1q0-1 0-1h-1q-1-1-1-1v-1t-1 0q-1-1-1-1v-1t-1 0h-1t-6-5q-6-4-13-5l-8-2h4l2-2q3-1 3-2t-1-2z" fill="#848184" stroke="#848184"/>
  <path d="m325 192l1-1v2q0 2-8 10t-13 11l-6 2v-2h2v-1h1v-1h2v-1h1v-1h1l6-6q8-6 8-6v-1h1v-1h1v-1l1-1 1-1v-1h1z" fill="#a59b99" stroke="#a59b99"/>
  <path d="m956 609l1 3q1 4-1 10t-5 10q-3 5-5 9t-2 5v1-1t0 1v3h-2v3h1v-1h1l1 1h1v1t-11 7l-10 7h-1v1h-7v-1l1-1v-1h1l1-2q1-2 2-2l1-2v-1h-2v-1l-1-2v1h-1v1h-1q-1 0-3 2h-2l-1 1-1 1h-1v-2h2v-1l1-1 1-1v-1h1v-1h1l2-3q2-3 3-4 0-2 5-6 4-4 5-4v-1h2v-1l1-2v-1l2-3q1-2 3-3t8-8 7-8q1 0 1-1 1-1 1-1z" fill="#827a78" stroke="#827a78"/>
  <path d="m498 586h1v1h-1v1l-1 2v2q-1 0-1 0v1t-1 1q-1 0-5 1t-6-1q-1 0-5-1h-4q0-1-2-1h-2v-1l1-1v-1h1v-1h1v-1l6 1q6 0 8 2 3 0 6-2 4-2 4-2z" fill="#927a62" stroke="#927a62"/>
  <path d="m579 606h1l4 1q4 1 6 3t4 2 2 1 3 2 3 5q1 2 1 3 1 0 1 3v3t-1 1l-1 2q-2 3-2 6v2h-2l-1 1h-1v2h-1v-1h-3v-1l-1-1q-1-1-1-2t1-1 1-1q0-2-5-3t-5-2v-1h1v-1h-1v-1h-1q-1 0-1 1t-2 1q-1 0-3 3l-1 3-1 1-1 1v1h-1v-10q1-10 2-15l1-5h1v-1h2v-1h1v-1h1z" fill="#61534e" stroke="#61534e"/>
  <path d="m230 88h4q5 1 5 2l1 1v3q-1 2-2 4t-1 2h-1q-1 0-2 2 0 2 0 4v5l1 1h-3l-2-1q-3 0-4-3 0-2-10-4l-9-2v-1h-1v-1h-1v-1h-1v-1h-2v-2h2v1h1v1h4q2 0 3-2 2-2 8-4 7-2 8-2h1v-1q1 0 1-1z" fill="#b9b4b5" stroke="#b9b4b5"/>
  <path d="m43 170l-2-4 2 2q3 3 3 3v1h1v1h1v1h1v1h1v1h1l1 1v1t0 1h1l-1 1q0 1 0 1 0 1 0 1h-2t0-1h-1q0-1-2-3-1-3-4-8z" fill="#ceb7ab" stroke="#ceb7ab"/>
  <path d="m692 458h1t1 1l1 2q1 1 3 2h1q1 0 1-1l2 1q2 1 1 3-2 2-3 2h-6q-4 0-5-1h-1q0-1-2-1-3 0-3-2-1-1 1-2l2-2 2-1q1-1 2-1 2 0 2 0z" fill="#e09695" stroke="#e09695"/>
  <path d="m251 477l3-4-2 6q-2 5-3 7t-2 2v-2q1-2 1-3v-1q0-1 3-5z" fill="#978482" stroke="#978482"/>
  <path d="m32 55l1-2 1 4q0 5 0 5h-1v1h-1v1q0 2-1 2v1h-2q-1 0-3 1-2 2-8 6-5 6-6 6v-2l1-2 1-2v-1l1-1 1-1q0-1 2-4l2-3h1v-1h1v-1h2v-1h1v-1h2l1-1q1-1 2-1v-1q1-1 2-2z" fill="#d7b9b3" stroke="#d7b9b3"/>
  <path d="m298 680l-1-2 9 5q10 5 11 6l1 1h2v1h1v1h2l1 1 2 1q2 2 3 2h1l3 2q3 1 3 3-1 2 3 3 4 0 5 2t2 2v-1h1v-1h1l1 1h1v2l-1 1-1 2h-2l-3 2q-3 1-4 3 0 2-6 2-6 1-7 2 0 2-1 2-1 1 0 1 1 1-1 2-1 0-2 2t-2 3q0 1-2 2-1 1-2 1v-1q0-1-2 0t-1 2q1 0 1 1 0 2-1 2l-1 1q-1 0-1-1t-3-2q-3 0-3 1-1 1-2 1-2 1-2 0-1-2-2-3t-6-1-5-1-2-1q-1 0-7 0-6 2-7 0-2 0-3 0-1 1-5 1-5-1-8 1h-2l1-1q1-1-2-3-2-2-3-4 0-3 1-3 1-1 1-2 0-2-2-2h-2q0-1 2-1 1 0 0-1v-1h-1v-1h1q0-1 5-2 5-2 5-3t2-1q3 0 4-2 2-3 9-4 7-2 7-3t6-3q5-3 4-4 0-1 3-2t2-2q-1 0-1-1t3-2h3v-1l1-1v-1h-1l-1-1h-1q-1 0-2-2zm38 36q0-1 1 0 1 0 0 1-1 0-1-1z" fill="#d69b58" stroke="#d69b58"/>
  <path d="m98 134v-1h4q3 1 20 1h30q3 0 4 0h1v1q0 1-3 3-2 1-2 2 2 1 2 2v1h-1q-1-1-3-1l-1-1q0-1-1-1h-3q-2 0-13 0-12 0-22 0l-11-1v-1h-23l-2-1h-1v-1h19l3-1q3 0 3-1z" fill="#aa9372" stroke="#aa9372"/>
  <path d="m566 253l-2-3h1q1 0 2 1h1l10 3q9 2 12 4 2 0 4 1h1q0 1-2 1t-15 1h-12q0-1 2-1t0-1l-2-1h1l1-1q1-1-2-4z" fill="#d3bfb4" stroke="#d3bfb4"/>
  <path d="m36 132l2-1 18 8q17 7 20 8h2q0 1 0 1h1l16 4q16 4 19 4h3l3 1 2 1h-13q-13 1-15 18-2 18-8 20-5 2-6 3l-2 1h-3v1l-1 1v2h-1v-2l1-2v-1h1v-1h1v-1t1-1q1 0 2-3 1-2 1-6t-3-4q-3-1-6-3t-3-3-3-2-2-2q1 0 1-1 0-2-1-2t0-1-3-5l-5-5h-1q0-1-5-7l-5-6q0-1-1-1v-1q-1 0-1-2-2-2-5-6t-1-4z" fill="#645e58" stroke="#645e58"/>
  <path d="m689 270h3t1 0v1q0 1 1 1 0 1 1 1v1h1v2q0 1 1 1 0 1 1 1 0 1 1 2l1 2v9l1 1 1 1v1l4 2q5 2 11 2t10 2q4 0 7 0 2 0 2 0h1l1 3q2 3 5 4t3 6q0 4 1 7v3h1l1 1h2v1h1v-1l1-2v-1h1l1-1 4-2q5-2 5-2v-1h1v-1h2l1-1 2-1h1l1-1q0-1 0-1h1q1 0 1 0v-1t1-1q1 0 1 0v-1l1-1q1 0 2-1l1-1 1-1h1v2h-1v1h-1v8q0 3-4 11t-3 13q0 4-1 4t-1 2q-1 2-1 2 0 1 1 3v2h-1q-1 1-3-1l-1-2h-1v1h-1v1h-2v1h1v1l1 2q1 4 1 4h-1l-1 1q-1 1-2 1h-1v1h-2q-2-1-4-1t-3 3-11 6-15 3-8-1l-3-1h-1l-1 1h-1v1l-1 1v1l-1 1v1h-2l-1-1v-1q0-1-2-3t-4-3q-2-2-4-4l-3-2 1-1q1 0 0-3-2-2-5-4t-5-4q-2-1-4-1h-2v-1q0-1 0-4t-4-3q-3-1-10-4l-6-3-1-1-1-1h-1v-2h1l2-3q2-3 3-4l1-1h1l1-1h1v-2h-1l-1-1h-2l-1 1-1 1h-5q-4 0-6 2l-2 1q-1 1-2 1 0 0-1-1t-4-2l-2-1h-1t-4-2q-5-2-5-3t-5-1l-5-1h-2q-2-1-11-1h-9 3q2-2 2-2h1l-3-1q-2-1-5-1h-3l-1-1-1-1h-1v-1h-1v-1h-1v-1h3l2 1h7l1 1 1 1h37q38 0 39-2t2-5v-3l3-8q2-9 6-13 2-4 3-5z" fill="#e4cab5" stroke="#e4cab5"/>
  <path d="m982 635q0 1 0 1h1l-1 1q0 1 0 1h-2l-1 1-1 1h-2q-1 0-2 0t0-1q2-1 2-3v-1l3-1q3-1 3 0t0 1z" fill="#978c88" stroke="#978c88"/>
  <path d="m256 470l1-2h1l4 5q4 5 8 7 3 2 3 2l-1 1q-1 1 0 3 2 0 0 0t-4 8-2 17q-1 9-5 16-3 7-4 15t0 17v9h-1v-1l-1-1-1-1v1h-4v-1h1v-1h1v-1l-1-1q-1-2-1-7t0-11q-2-6-3-16-2-11-3-11h-1v-1h1q1 0 2-9v-9q1 0 0-1v-1q0-2 1-5v-3q1 0 2-2t3-7l2-6v-1t2-2z" fill="#5f5046" stroke="#5f5046"/>
  <path d="m16 452l4-2-4 4q-3 4-8 9-6 5-7 6h-1v-13h4q2 0 6-1h3v-1q0-1 3-2z" fill="#786a5a" stroke="#786a5a"/>
  <path d="m8 480l4-1-1 1q-1 1-1 2v1q-1 1-1 1h-1v4q0 2 2 4 2 3 3 4v1h-1q-1 0-5-5l-4-6-1-1v-1l1-1 1-1t4-2z" fill="#8a8381" stroke="#8a8381"/>
  <path d="m24 405l4-1 7-1q7 0 9 12t-1 17q-3 4-7 8t-5 4h-1l-1 1-1 1h-2v-1h1v-1h1v-1h1v-1h1v-1h1v-1q1 0 1 0 0-1 1-4 1-4-3-16-2-12-6-12l-4-1q0-1 4-2z" fill="#6c7177" stroke="#6c7177"/>
  <path d="m281 113l3-1h8q7 0 10 1h2l8 5q7 6 8 6h2q0 1 0 2h-4q-5 0-10 2l-6 2v-1h-1v-1h-3v-1l-1-1q-1-2 1-3 1-1 1-4v-3h-2l-1-1q-1-1-10-1h-8v-1h3z" fill="#d0a7a3" stroke="#d0a7a3"/>
  <path d="m133 31h3v1q0 2-1 8-1 5 0 5t1 3q0 2 0 4 0 1 1 1t0 5q-1 4-1 7t-1 3-1 1v3h12q12 0 18-1l5-1h8t-1 1l-2 1v1q-1 1-12 9-10 9-12 16-2 6-3 6t-13 2l-11 2h-1v1h-1v1h-1q-1 0-2 1h-4q-4 1-8 1l-5 2h-2q-2 0-2 1h-18v-1h-5v-5h1v-1h1v-1h1v-1h1l13-8q14-8 15-8h1l1-1 1-1h2l1-1h1v-3h-7q-5 0-6 0h-5v-1h-1v1h-4v-4h2v-1h1v-1q1 0 3-2t1-2-1-2q1-2 2-2 2 0 3-2t1-12-2-11q-1-1-1-1 1-1 1-2 1 0 2-2l2-3 13-3q13-2 16-3z" fill="#484d4e" stroke="#484d4e"/>
  <path d="m591 466v-5 1l1 2v1h1v1h1l1 1 1 1 6 2q5 2 8 0 4 0 4-1h1l3-1q3 0 4-1h1v1q0 1-6 6-5 5-7 8 0 3 1 4 1 0 1 2 0 1 0 2v7l-4-1q-4 0-5 1-1 2-1 5 0 4 0 6v5l-1 1-1 2v-3l-1-1v-2h-1q-1 0-2 0 0 1-1 1h-1v-2q0-2-1-3 0-1-1-1-1-1-3-2-1-2-6-5-4-3-4-4-1-1-2-2-2-2-2 0v1h-1v-1h-1v-2l1-2t2-4q1-4 3-6 1-1 4-2 2 0 3-2 2-2 4-2 1 0 1-6z" fill="#a46649" stroke="#a46649"/>
  <path d="m583 305v-1h3v1h1v1h1l1 1 1 1h3q3 0 5 1l3 1h-1t-2 2h-3 9q9 0 11 1h2v1h-1v1q0 1-1 2 0 1 1 1t1 1-2 1h-2l1 1 2 1h-1q-1 0-1 2v3l1 2q0 1-1 2-2 0-2 1 1 0 2 0t2 1q0 1 0 3t-1 2 0 1h-1v3q-1 0-4 2-2 1-3 3t-5 5-13 4q-8 1-14 9l-6 8v-1q-1-2-1-1-1 1-5 1t-4-2q0-1-1-1-2 0-2 1v2h-1v-1q-1 0-1-7-2-8-2-14l-1-5q1 0 1-1 0 0 1 0v-1q1 0 1-1h2l4-4q5-4 12-6 8-3 8-5t1-5 2-6v-2q-1-1-1-1v-8h1z" fill="#ebc4a7" stroke="#ebc4a7"/>
  <path d="m396 262v6q-1 0-38 16l-37 16h-3l-1 1-1 1h-3v-1h1v-1h1l1-1 1-1h2l7-4q6-2 6-3h1l1-1 30-14q31-14 32-14z" fill="#817b7b" stroke="#817b7b"/>
  <path d="m410 389v-1h2l3 3q3 3 3 5 0 1 5 2 5 2 6 3t1-1q0-1 1-1h1v4l-1 10q-1 10-2 11-1 0-1 1l-25 11q-25 12-30 14-5 3-7 4t-2 2-2 2q-2 2-6 9t-5 11-1 12 1 10v1h-1q0-1-2 0t-11 1-15-2q-5-2-12-4-6 0-20-6-13-5-13-6-1-1-2-2h-2t-3-2q-4-2-8-7l-4-5h-1v-7h1l1 1h1v-3h2l1 1 3 1q4 2 4 3t3 1 3 1q1 2 18 4 18 2 23 0t5-4q1-1 0-2 0 0 0-3 1-3 2-4 1 0 2-2 1-1 3-2 1-1 7-7 6-7 5-9 0-2 3-3 4 0 4-1t-1-1-1-2q1-2 2-3 2-1 6-4t4-6q2-3 2-2t2-1q1-2 2-3 2 0 2-4 1-3 2-3t1-2q0-1 2 0 2 0 3-1t6-3q4 0 6-2 3-2 6-2 2 0 2-2 1-2 5-2t5 0q0-1 1-1l1 1h3v-1h1z" fill="#d65226" stroke="#d65226"/>
  <path d="m538 238v-1l7 3q7 2 7 3 0 0-1 1v2h-2l-1-1-2-1h-1q-1 0-4-2l-3-1v-1t0-2z" fill="#c6b9ba" stroke="#c6b9ba"/>
  <path d="m626 404v2l1 4q1 3-1 8-2 4-4 6-2 0 0 1 1 0 1 3-1 4-1 4v1t1 1q-1 1-5 2-5 1-5 4 0 2-9 4l-8 2-1 1h-1v8l-2 3q-1 2-1 3v5q0 6-1 6-2 0-4 2-1 2-3 2-3 1-4 2-2 2-3 6-2 4-2 4l-1 2v1h-1v-1h-2v2q0 1-1 4l-1 3v1h-2v-6h-1v-1h-1q0-1-1-4t0-6q0-3-5-4l-5-1v-1l1-1v-1h-1v-1h3q4 0 6-1t2-2 0-9q-1-8 0-8t1-1 3-1q4-1 4-3t2-2q2-1 3-1t2-4q1-3 1-4-2-2-2-6t0-6q2-1 2-4t-2-4q-2-2-3-5l-1-3 1-2 1-2v-1h1v1l2 1q3 1 2 0 0-1 3-2t11-6q7-5 9-5 0 0 1 2 1 1 6 1t5 1q0 2 5 3t5 1q0 1 0 2z" fill="#de9369" stroke="#de9369"/>
  <path d="m243 618l1-1 34 17q33 18 33 18v2l1 1v1h2l1 1 1 1h-1l-1 1h-1v2h-1l-1-1h-2v-1h-1v-1h-1q-1 0-31-17l-30-16h-1v-1q1-2-1-4t-1-2z" fill="#65534c" stroke="#65534c"/>
  <path d="m206 123h4l2 2q2 1 2 2l5 4q5 4 5 7v2h-1v1h-1v1h-1v1h-1q0 1-3 3t-11 2l-8 2h-2q-2 0-8 0-5 0-6-2t-2-2-1-1-1-1h-1l-1-1h-1v-1l-1-1v-1h-1v-1h-1v-2h1l1 1 1 1q1 1 2 1h1l1-1 1-1 3-4q3-4 4-6t5-4q3 0 6 0t8-1z" fill="#8d9a59" stroke="#8d9a59"/>
  <path d="m918 424h15t1 1l4 2q4 1 13 5 9 2 11 2h4l3 2q3 1 5 7t2 12-4 17q-4 10-8 14-2 5-5 10t-7 12q-6 7-10 12-6 6-6 8v3h-1v1h-3q-1 0-4 2l-3 1h-5q-4-1-8-1t-6-2q-3-2-7-5t-9-6q-4-3-10-5-5-2-12-4-8-2-14-4-5-4-8-5-2-1-11-3-9-3-11-1-2 3-6 3h-4l-1-1-1-1h-2t-3-5q-3-4-14-13l-10-10h-1v-7h1v1h1l7-2q7-4 14-4 7-1 10-2 2 0 7-2 6-2 8-2 1 0 2-4 0-3 6-8 5-4 12-5 6-1 6 0 1 1 7 0t9-5q4-4 4-6 1-2 2-2h2v-4h1l3-4q3-4 6-4 2 0 9 5 6 5 9 5 3 2 10 2z" fill="#daab82" stroke="#daab82"/>
  <path d="m660 319l1-1h2l1 1h1v2h-1l-1 1h-1l-1 1q-1 1-3 4l-2 3h-1v1h-1q0-1-4-2t-4-2v-4l2-1q2-2 6-2h5l1-1z" fill="#beb373" stroke="#beb373"/>
  <path d="m642 334h1l3 2q4 1 3 6-1 4 1 5t4 1q1 0 1 2 0 1 3 2 4 0 5 5t4 8 3 5v1l-1 3q-1 2-1 4v2h-1v1h-1v1q-1 2-1 2h-1t0 1q-1 1-4 1-2 1-9 2l-6 2h-3v-1h-1q0 1-5-1-4-2-4-8 0-5-1-5t-2-3-6-6q-4-3-4-4t-2-1-4-5q-2-4-3-4t0-2h1l1-1q1-1 1-1 1 0 1-3v-4h1v-1h3q3 0 4 1 2 1 4 0 1-1 2-1 2 0 4 0h5v-1l1-1v-1q0-1 2-2 1-1 2-1z" fill="#e57348" stroke="#e57348"/>
  <path d="m16 114v-2h2v1h1v1h1l3 4q3 3 4 4h-2q-1 0-2 2v2h-1t0-1h-2q0-1-1-2l-1-1v-1q0-1-1-3l-1-1v-1q0-1 0-2z" fill="#cbb8b4" stroke="#cbb8b4"/>
  <path d="m862 710v-1 4h-1v1h-1v1h-1v1h-1l4 1q3 1 4 1h3v1l-1 1t-2 2h-3v1h-13l-13-1h-1v-1l8-1q8-2 13-6t5-4z" fill="#74604b" stroke="#74604b"/>
  <path d="m342 342v-2l4 4q4 4 8 5h3v1h1v2l-1 2-1 1v1h1v1h-1q-2 1-4 1h-1v1h-1v2l-1 1-1 1v1t-1 0-7-7l-8-7v-2h-1v-3h1l1-1h5v-2t2 0q2 1 2 0zm-4 4t1 0-1 0z" fill="#edd1a8" stroke="#edd1a8"/>
  <path d="m722 256h2v3q-1 1-2 1l-1 2h-1v1h-1v1h-3q-3 0-7 3-5 2-4 3 1 0 1 1l-1 1h-1q-1 0-1 1h-1q-2 1-3 1h-1v1h-1v1h1v2h-2v-4h-1l-1-1h-1v-2h1l1 1 1-1q2 0 2-1t1-2q1 0 3-4t0-4l-1-1 3-1q4 0 10-1t8-1z" fill="#cdb3af" stroke="#cdb3af"/>
  <path d="m113 542l3-1v1h2q2 0 3 2t1 14 0 16v5l2 3q1 2 2 3 0 1 1 1v1h1l11 6q12 7 13 7 0 0 1 0v1h1l9 5q10 6 11 6l4 3q3 3 4 3 2 0 4 1h1l6 3q6 4 7 4l5 3q5 3 6 4h1l4 2q5 3 6 3h1l9 5q9 5 10 5l15 8q15 8 16 9l1 1h1q1 0 1 1h1q0 1 1 1 0 0 0 1h1l2 1q2 0 3 1h1l3 2q3 3 6 3 2 2 2 2h1t1 1q0 1 0 1h1t1 1v1h1l1 1h1v1l-1 1v1h-3q-3 1-3 2t1 1q1 1-2 2t-3 2q1 1-4 4-6 2-6 3t-7 3q-7 1-7 3 1 1-1 1-1 0-2 1 0 1-3 1-2 0-2 1t-5 3q-5 1-5 2h-1v1h1v1q1 1 0 1-2 0-2 1h-4q-3 1-7 2t-9 1q-6 0-7 2-1 1-1 2t-4 0q-4 0-2 1t0 2-3 2-2 2-2 0q-1 0-2 2t0 3q1 0-2 2-3 1-3 0-1 0-4 0-2 1-2 2 1 2 0 1-2 0-2 1t-4 2q-4 2-5 4-1 3-3 4t-3 0q-1 0-1 0 0 2 0 5t-2 3h-2l-1 1h-1v2h1v1h1l1 1 1 1h-174v-168l1-1 1-1 1-1q1-1 4-2t3-2 6-3l5-3 2-1q2 0 2 1 1 1 1 1h2t3-1 3-2 2-1q1 0 6-3 6-3 7-5t3-3q3-1 3 0 1 1 2 0 2-1 5-4l2-3q1 0 1-1h1q0-1 0-1 1 0 8-2 8-2 10-4 2-1 6-5l4-4h2q0-1 7-3 7-3 10-4z" fill="#f1d9a4" stroke="#f1d9a4"/>
  <path d="m84 303h1v1q0 1-5 6-6 4-9 10-3 5-5 6 0 2-1 3l-1 1v1h-1v1h-2v-2h-1v-4l1-2 1-2v-2q0-1 2-3 1-2 2-2 1-1 2-2 1-2 5-4l4-3q1 0 1 0 1 0 1-1h1q0-1 0-1h2q1 0 2-1z" fill="#7c7e86" stroke="#7c7e86"/>
  <path d="m1024 383v59q-1 0-3-4l-1-4-1-2q-1-1-5-12-4-12-4-17-2-5 0-6v-1h1v-1q1 0 1-1 0 0 1 0v-1q1 0 1-1 0 0 1 0v-1q1 0 1-1l4-3q3-3 4-4z" fill="#efe7d9" stroke="#efe7d9"/>
  <path d="m747 289v-1h1q1 0 1 2 0 1 3 2 4 0 5 3t3 5q2 3 3 5t1 5v6t-5 2l-4 2-1 1h-1v1l-1 2v1h-1v-1h-2l-1-1h-1v-3q-1-3-1-7 0-5-3-6t-5-4l-1-3h1q1 0 1-2 0-1-1-1l-1-1h-1v-1l6-1q5 0 5-2 1-2 0-3z" fill="#c2997a" stroke="#c2997a"/>
  <path d="m266 656v-3l22 12q23 11 24 12l1 1h2l1 1 1 1h-2v3h-1l-1-1h-1v-2h-2v-1t-10-4q-9-3-12-4h-4q-1-1-3-1l-2-1v-1q-1 0-1 0 0-1-1-1v-3h-1q-1 0-1-1t-2-2l-2-1h-1t-2-1q-1-1-2-3z" fill="#998474" stroke="#998474"/>
  <path d="m444 568v-1l4 2q4 1 8 2l3 1h1v2h-1l-3 1-3 1h-1l1 1 1 1h2l1 1h1l-3 1q-3 0-3 1t-1 1-1 2 2 4q3 2 3 2h1v3h-1v1h-1l-2 1-3 1h-1l-2 1-3 1h-1t-4 0q-3 0-16-2l-12-2-2-1-1-1h-2l-1-1h-2v-1h4l5-2q5-2 6-3t7-3 8-2h4v-1h1v-1h1v-6h6v-3q0-1 0-1z" fill="#bda085" stroke="#bda085"/>
  <path d="m511 241h2v2l-1 2v1q0 1-4 4l-2 2h-1v1h-1l1 1q1 1 1 2h-2q-1 0-1-1t-2-1h-2t-1-1 0-1v-1h1q1 0 1-3 0-2 1-2v-1h1v-1l4-1q5-1 5-2z" fill="#95a065" stroke="#95a065"/>
  <path d="m4 24v-2h1l1 4q0 3 1 4l1 1v2l1 2 1 2v11q0 7 0 10v3l1 1 1 1v1h8l-2 3q-2 3-2 4l-1 1-1 1v1l-1 2-1 2v3h-1l-1-1-1-2v-1h-1l-1-1h-4l-1 1-1 1h-1v-39t1-1q0-1 1-1h1v-1q1-2 0-6t1-6z" fill="#d49b94" stroke="#d49b94"/>
  <path d="m0 372v-7 1q1 2 10 4 8 2 10 3h2l-4 2q-3 1-4 2l-2 1h-12v-6z" fill="#565959" stroke="#565959"/>
  <path d="m209 81h3q0 1 0 1h1t1 1v1q0 1 0 2 0 0-11 1l-12 1h-3q-2 0-6 4l-3 2v1h-1q0 1-2 2l-3 2h-6l-6-1h-1v-2h-1v-1h1v-1l1-1 1-1 1-1 1-1h1l6-3q5-2 6-3l10-2q10-2 15-2 4 0 7 1z" fill="#4b5356" stroke="#4b5356"/>
  <path d="m722 718h60l-3 1-3 1h-2l4 1 4 1h1q1 0 1 1h-2q-2 1-70 1h-67l1-1h1v-1l-1-1v-1h2v-1h8q7-1 66-1z" fill="#574736" stroke="#574736"/>
  <path d="m502 462h1l3 5q2 4 6 7t4 4q1 2 9 2t16 0 9-3q1-2 2-2h2v1l-1 1v1l5 1q5 1 5 4-1 3 0 6t1 4h1v1h1v6h2v-1l1-3q1-3 1-4v-2h2v1h1v1h1v1h1l1 3q0 4 2 4 1 0 1 5 1 5 0 6v1h-1q0 1-1 4 0 3-1 4-2 0-2 2 0 1-3 2-3 0-3 8 0 9-1 10v1h-1q0 1 0 1 0 1-2 3t-6 5q-5 4-7 6t-5 3q-4 1-7 1l-3 1v1h-2v1h-1v1h-1l-1 1-1 1h-1q-1 0-7 2-7 2-10 2t-5 3q-2 2-4 3-1 1-3 4l-2 3v1t-4 2q-3 2-6 2-2-2-8-2l-6-1v-1t-3 0-5-2q-1-2-4-4l-4-1h-1l-1-1h-2l-1-1-1-1h1l3-1 3-1h1v-2h-1l-3-1q-4-1-8-2l-4-2q0-1-1-1t-2-2q-1-1-1-6t2-7q0-2 3-3 3-2 4-3 1-2 2-6t2-7q1-2 2-1 0 1 1 1t1-1q-1-1 1-1 1-1 1 0t1 1q1-1 2 0v1l1-1 1-1v-7q0-6 5-7 4 0 3-2 0-3 4-3 4 1 8 1h3v-1h1v-1l1-1 1-1v-3l-1-1q-1-1-2-4-1-4-3-7-3-4-2-4t1-7q-1-7 2-8 3-2 4-3 1-2 5-1 4 0 4-2v-1t1-1 1-2v-1q1-1 2-1z" fill="#c1936f" stroke="#c1936f"/>
  <path d="m370 588h2q1 0 1 0h1l1 2q1 1 3 4 1 4 4 5 2 2 3 4 1 1 2 2 1 0 3 5 1 5 3 7 3 2 3 3 2 2 2 2v1h1v1h1l2 1 1 1h1v2h1l5 9q6 9 5 15t-2 8q-2 3-4 4-2 0-5 1h-3q-1 0-1 1h-2q-1 0-2 1-2 0-2 1v1h-1v1h-3v1l-1 1-1 1v1l2 4q2 4 3 6t3 4q3 3 0 4-2 0-1 2 1 3 17 13 16 11 19 12t5 2h3v2h-1v3h1v1h1v1h-4l-2-1-1-1h-1q-1 0-16-9-16-8-59-32l-44-24v-2h1l1-1h1l-1-1-1-1h-2v-1l-1-1v-2h2l1 1 1 1 14 6q14 8 17 8h2v1h1v1h5v-1l1-3q1-2 1-3t0-10v-9l1-1q1-1 2-1 1-1 4-6 3-6 0-16t-9-10h-6l-1-1-1-1h1v-1h-1v-1h-3v-1h2l2-1h1q2 0 3 0t4-2q3 0 5-5t6-7l4-2z" fill="#4f4c45" stroke="#4f4c45"/>
  <path d="m0 502v-16h3l4 5q4 5 5 5 0 0 0 1h1l1 1q0 2 0 6t0 6v1h-1v1h-1v1h-1v1h-1l-1 1-1 1h-4l-2 1h-2v-15z" fill="#40423d" stroke="#40423d"/>
  <path d="m174 73v2h-1q0 1 0 1h-1v1h-1v1h-1v3q0 3 1 3 0 0 1 0h5q-1 1-6 3l-6 3h-1l-1 1-1 1-1 1-1 1v1h-1v1h1v2h1l6 1h6v1h1v2h-2l-1 1-1 1h-3q-2 0-3 1-2 0-4 3-1 2-12 4h-12t0-1h-1v-1q-1 0-1 0h-2q-2 0-5 0h-6v-1h1v-1h1l11-2q12-2 13-2t3-6q2-7 12-16 11-8 12-9z" fill="#6f7879" stroke="#6f7879"/>
  <path d="m435 400h1v-1h1v7q-1 8 0 12l1 3q0-1 1-1h1q0 1-6 3l-6 2q0-1 1-1 1-1 2-11l1-10 1-1q1-2 2-2z" fill="#c17d5e" stroke="#c17d5e"/>
  <path d="m372 246h2l1 1h1v4h-1v1h-2l-1 1q-2 1-24 8l-22 8-1-1h1v-1h-1v-1h-8l1-1 2-1 12-4q12-4 24-8t14-5h1q1 0 1-1z" fill="#797673" stroke="#797673"/>
  <path d="m636 241h1v1q-1 1-7 8l-6 6h-1v1h-1v4h8l29 1q29 0 29 0 1 0 2 0h1v1q0 1-1 1-2 0-2 3t2 3 2 0h-1q-1 0-2 1-1 0-4 4t-5 13l-3 8h-1t-50-1l-49-1h-1t-3-3q-3-2-10-13l-7-11v-2l-1-1-1-1v-1h4l4-1h16q13-1 15-1t2-1h11l11-1 3-2q3-2 4-3 0-1 0-1h1t1-1q0-1 0-1h1t1-1q0-1 0-1h1t1-1v-1l2-2q3-2 4-3z" fill="#d8a35c" stroke="#d8a35c"/>
  <path d="m43 244l1-2v2q0 2 0 2t-1 2v1q-1 0-1 1 0 0-1 0v1q-1 0-1 1l-7 3q-7 3-12 6t-6 3h-1v-1q0-1 2-3l2-1h1v-1h1v-1t2-1q1 0 3-5 2-4 5-5h2t5 0 6-2z" fill="#92857c" stroke="#92857c"/>
  <path d="m926 632h2v1h-1v1h-1v1h1v1h1l2 1h1v1q-1 0-5 4-5 4-5 6-1 1-3 4l-2 3h-1v1h-1v1l-1 1-1 1v1h-2v1h-2q-1 1-8 5-6 4-12 10t-14 6q-8 2-16-1-9-3-18-3-8-2-13-2-5-2-10-2t-6 2l-1 1-1 1-1 1v3h-1v-3l1-3 2-10q2-10 4-12 3-2 15 0 12 0 15 2t12 2q9 2 14 0 5 0 9-1t17-7q14-6 17-9 4-3 8-6t5-3z" fill="#5d5854" stroke="#5d5854"/>
  <path d="m14 409l6-2 4 1q4 0 6 12 4 12 3 16-1 3-1 4 0 0-1 0v1h-1v1h-1v1h-1v1h-1v1h-1v1h-1q-1 0-1 0v1l-5 1q-5 0-5 0-2 0-2 2-1 1-2 1-1 1-3 1h-2l-3 1h-2v-40h1l1-1h3l1-1q2-1 8-2z" fill="#d4c5c3" stroke="#d4c5c3"/>
  <path d="m702 273h2v1t-1 2l-1 3v1h-1v1h1v3q0 1 0 2v2h-1t-1-1v-5l-1-2q-1-1-1-2t-1-1v-1l1-1v-1h1q1 0 3-1z" fill="#9b7769" stroke="#9b7769"/>
  <path d="m594 509v2l-1 10q-1 10 1 16t2 7v5q0 5-2 15-2 11-4 14-2 2-1 7t2 8 2 3 2 2 8 5q7 4 7 9 0 6-1 8l-1 1v1l-1 3-1 3v1h-1v1h-2v-1l1-1v-2q0-3-1-3 0-1-1-3 0-4-3-5t-3-2-2-1-4-2-6-3l-4-1h-2v1h-1v1h-2v1h-1l-1 5q-1 5-2 15v10l-1 4q-1 3-1 4-1 0-1 1l-7 8q-7 9-7 14-2 5-2 6h-1q-1 0-2 3-1 2-2 3-1 2-5 5-3 4-10 7-7 2-13 4t-9 3l-2 1h-11q-10 0-19 0-8 2-15 0-7 0-21-2-15 0-25-4t-10-5q-1-1-6-5t-6-8l-1-4v-1t1 0q0-1 3-2t2-2q0-1 0-2v-1q1 0 1-1h3q3-1 5-1 2-1 4-4 1-2 2-8t-5-15l-5-9v-2l-1-1v-1h-2v-2h-1l-1-1q-1-1-2-2 0-2-2-3t-2-4q0-4 1-10 2-5 1-5-1-1 0-1 2-2 0-2h-1l2-1q3-1 3-1v-1h4l1 1h2l1 1 2 1 12 2q13 2 16 2 4 0 4 0h12q11 0 15-2t5-3h5q4 1 5 1 2 2 6 1t5-1q1-1 1-1 1-1 1-1h1t0-1h1v-1h1l2-2q1 0 10-1 8-1 10-3t8-4q6-3 10-4 2-2 3-2h1t0-1l7-5q7-4 13-10 4-6 6-10 2-3 3-4v-2q1-1 2-7t3-7q1 0 1-8v-9q1-1 0-6 0-5-1-5-2 0-2-4l-1-3v-1q0-2 2 0 1 1 2 2 0 1 4 4 5 3 6 5 2 1 3 2 1 0 1 1 1 1 1 3z" fill="#33332d" stroke="#33332d"/>
  <path d="m315 110l-2-2 2 2q3 1 3 2v1h1v1h1v1h1v1h2l1 4q0 3-1 3-1 1-1 1h-2q-1 0-8-6l-8-5h3l3 1h1q1 0 3 1l1 1h1v-2q0-1-1-4z" fill="#837676" stroke="#837676"/>
  <path d="m244 568v-5l2 1q2 2 2 2h1t1 1q0 1 0 1h1v4q0 3 1 3t1 1-1 0q-2 0-2 0-1 0-3-2-2-1-3-6z" fill="#8c7775" stroke="#8c7775"/>
  <path d="m123 527l3-2-1 6q-1 6-3 7-3 0-4 1l-1 1h-1v1l-3 1q-3 1-10 4-7 2-7 3h-1v-1q-1 0-1 0v1q-1-1-2-1h-1v-1q0-1 1-1h1v-1h1v-1h1v-2h1q1 0 1-1h1q1-1 4-1 2-1 2-2t6-5l5-4h3q2-1 5-2z" fill="#dca55d" stroke="#dca55d"/>
  <path d="m655 454h1v1q0 1-2 1-1 0-3 2-1 2-1 4t-7 4l-7 2v1q-1 1 0 1h1v1h1v2h-1l-1 1h-2v1h-1v1h-1v1h1q0 1-1 1l-2 1v1h-1v1h1v5l-1 1v1h-1t0 1q-1 1-4 3l-2 2h-2l-1 1-1 1h-1l-3 1h-2v-7q0-1 0-2 0-2-1-2t-1-3q0-2 6-9l6-6t1 0v-1l7-3q6-4 10-5 3-1 8-3 6-2 7-2z" fill="#df877e" stroke="#df877e"/>
  <path d="m595 455l1-1 2 1q3 1 8 4 4 4 5 5 0 1 2 1t2 2v2h-1q0 1-4 1-3 2-8 0l-6-2-1-1-1-1h-1v-1h-1v-1l-1-2v-1q0-1 1-3l2-3h1z" fill="#933f26" stroke="#933f26"/>
  <path d="m551 344h1v6q0 7 2 14 0 7 1 7v1h1v-2q0-1 2-1 1 0 1 1 0 2 4 2t5-1q0-1 1 1v1l-2 9q-3 8-3 8h-2q-1 0-7 2l-6 1v1l-1 1 1 1q1 1 1 2v1h-1l-1-1h-3v-1l-1-1v-1q0-1 0-3 0-1 0-2h-1q-1-1-1-6-2-4-2-12 0-7 1-7 1-1 5-11t5-10z" fill="#edb58c" stroke="#edb58c"/>
  <path d="m961 702v-4h1q2 0 8 1l7 1h1v4q0 4-1 4h-1t-1-3l-1-3h-2l-1 2-1 3v1h-2v-6h-1l-1-1h-2v2q0 2-1 4l-1 2v-1l-1-1v-5z" fill="#f2eadf" stroke="#f2eadf"/>
  <path d="m694 411v5h-1v1h1v1h-1q-1 0 1 1 1 0 0 1 0 2-1 1-1 0-1 1t1 1 1 1 1 2q1 0 0 4t-1 5h-1v1h-1v1h-1v1h-1v1h-2q-1 1-20 1-20 0-32-3l-13-3q-1-1-1-1v-1t1-4q0-3-1-3-2-1 0-1 2-2 4-6 2-5 1-8l-1-4 1-1 1-1 2-4q2-4 6-5h10q5-1 11-4t7-4 1-1h2v-1h1v-1l3-2q3-2 5-3 3 0 7 5 4 6 7 7 2 2 3 9 1 6 1 11z" fill="#da6a41" stroke="#da6a41"/>
  <path d="m34 117l-4-5h1q1 0 4 3t5 1q2-3 3-3 1-1 3-1h3l1 1q1 1 1 1l-3 1q-2 1-2 4t0 3v1l1 1q1 1 1 2v1h-1q-1-1-4-3l-3-2h-1q-1 0-5-5z" fill="#968676" stroke="#968676"/>
  <path d="m1024 643v102q-1-1-2-1t-2-4q0-3-4-4t-4-2q0-2-4-4-4-3-4-4 0-2-1-2t-1-2q-1-1-2-1t-1 1-1 1-1-2q0-3-1-1 0 1-1 0-1-2-3-2t-4-2-4-1q-2 0-2-2-1-2-4-3l-2-2h1q1 0 1-4v-4h-1l-7-1q-6-1-8-1h-1v8h-1v-3q0-3-1-3v1h-1q0-1 0-1-1 0-4-2h-4l-1 1h-1v-2h1v-1h2v-1h1v-1l1-1q0-1 2-3 3-1 3-2 0 0 1 0v-1q1 0 1-1l32-21q31-21 32-22zm-42 69t0-1 0 1z" fill="#e9bc7d" stroke="#e9bc7d"/>
  <path d="m476 230h1l-1 2q0 3 1 3 1 1 1 1-1 0-1 1t1 1-2 0q-1 0-7 2l-6 2-1 1-2 1h-2v1l1 1v1h-2q-2-1-3-1h-1q-1 0-1-2t-1-4l-1-2h-2v-2h1l1-1 2-1 8-1q7-1 8-1 2 0 2-1t2-1 4 0z" fill="#d5c189" stroke="#d5c189"/>
  <path d="m20 577l2-1h6v1l-2 1q-2 1-2 1v1h-2v1l-4 1q-3 1-4 2 0 2-4 2-4 2-7 2h-3v-3h5v-3h1q2 0 4-1 1 0 1-1 0-2 3-2t6-1z" fill="#c08441" stroke="#c08441"/>
  <path d="m172 521l2-2v19q0 20 0 21v1h1v8q-1 8-1 9v1h-3q-2 0-6-1t-5 0l-2 2q-1-1-8-5l-8-4h-2t0-1v-1q0-1 0-18v-17l1-2v-2h1q1-1 5-2 3-2 13-3 10 0 12-3z" fill="#ebba74" stroke="#ebba74"/>
  <path d="m766 260h4v1q0 1-2 1h-3v1h-8q0-1-3-1l-4-1 4-1q5 0 7 0t5 0z" fill="#daaf9c" stroke="#daaf9c"/>
  <path d="m478 236h1q1 0 1 0v1t1 1l1 1q2 1 2 2h1q0 1-3 1-2 0-8 4l-5 2v1q-1 0-1 1t-1 1h-1v-1q0-1-4-2l-3-1v-1l-1-1v-1h2l2-1 1-1 6-2q6-2 7-2 2 0 2 0 0-1-1-1 0-1 1-1z" fill="#b0b177" stroke="#b0b177"/>
  <path d="m361 113l1-1h2v8l-1 1q-1 1-3 5-2 3-3 3h-1v-1q0-1 0-3t-3-1h-3v-1h1v-1h1v-1h1v-1l2-2q2-2 2-2h1v-1h1v-1h1l1-1z" fill="#766e69" stroke="#766e69"/>
  <path d="m606 551v-1l1 1q0 1 1 2 2 1 2 1h1l3 7q2 7 9 14t8 8q1 0 1 1v1h1v1h2l1 1h2l2 1q1 0 2 6 0 5 4 8 3 4 4 4 0 0 0 1h1q0 1 1 1l1 4q1 4 1 6v7l1 1 1 1v1h-1l-3 1h-3l-1-1h-1v-1h-1q0-1-4-4-4-4-7-6-3-1-4-4-1-2-4-3t-3-2-2-5-7-9q-5-6-5-12-1-5-2-5t-2-5l-2-4v-6q0-6 1-8l1-3z" fill="#d0ae9c" stroke="#d0ae9c"/>
  <path d="m322 108v-2h2v1h1v1l3 2q4 2 5 3h1q0 1 0 1h1v1q1 1 1 3v1h1l1 1h1v-1h1v-1l6-4q5-4 6-5v1q0 1 0 1v1l-1 2-1 1v1h-1v1h-1v2h1v-1h3v1h-1v1h-1v1h-1v1h-1v1h-1v1h-1v1q-1 1-9 5l-8 4-1 1h-1v-2h-1l-1-1h1v-1t0-1q-1 0-2-1 0-1-1-1t-1-1v-1q0-1 0-2 0 0 1-1 1 0 1-3l-1-4v-1l-1-1v-2q0-1 0-4z" fill="#c3b5b7" stroke="#c3b5b7"/>
  <path d="m491 232h-1q-2 0-2 1v1h1t0 1q1 0-2 3l-2 3h-1q0-1-3-2l-3-1q-1 0-1-1h1q1-1 1-1 1 0 1 0v1h1q1 0 1-2 0-1 1-4 1-2 0-3h-1 2q3 0 5 2t2 2z" fill="#c1bf8e" stroke="#c1bf8e"/>
  <path d="m196 93h3q0 1 1 1h1q1 1 1 2 0 0 0 1h1v1q1 0 1 0v1h1v1h1v1h1v1l9 2q10 2 10 4 1 3 4 3l2 1h4q2 0 3 1h1q0 1 0 1h1l1 2q2 2 2 2l1 1 1 1h-1v1h-1v1h-1l-2 1-2 1h-9l-2 1h-4q-2-1-4-2l-3-2v-1q-1 0-1-1-2-1-15-3-14-2-25-1l-12 2v-6l1-1 1-2v-1h1v-1h1v-1l1-1h1l1-1 1-1h2v-1h6l4 1 5-1q5 0 5-4 0-3 2-4z" fill="#ddd5be" stroke="#ddd5be"/>
  <path d="m364 716l3-3 3 2q4 1 6 2l1 1h1l1 1 1 1h2v1q1 1 2 1h1l13 8q14 8 15 9l1 1-1 2v3h-1l-1 1h1v1h1v1h1v1h-2v-1h-2l-1-1q-1-1-24-12l-23-11-2-1h-1v-4h1q1-1 4-3z" fill="#655f59" stroke="#655f59"/>
  <path d="m124 582l-2-3h1v1h1l11 6q11 6 12 6 0 0 1 1l2 3q2 2 2 3v1q-1 0-13-7l-11-6h-1v-1q-1 0-1-1-1-1-2-3z" fill="#ae8f74" stroke="#ae8f74"/>
  <path d="m92 544l3-1v1h-1v1h-1v1h-1q-1 0-1 1v1l-4 1q-3 1-5 2-1 1-8 3-8 2-10 3l-3 1h-4l1-1v-1h1l2-1 2-1h2v-1q0-1 1-1t2-2q0-1 2-2h4q2 0 3 0t6-1 5-2 4-1z" fill="#c28642" stroke="#c28642"/>
  <path d="m687 467h2q1 1 5 1h4v2t-6 3l-6 3h-3v2l-1 3v1h-1v-2q-1-1-3-1h-3v-1q1-1 1-1l4-4q3-4 4-5 2 0 3-1z" fill="#ae696c" stroke="#ae696c"/>
  <path d="m51 55h1v1q0 1-4 4t-6 7-5 10q-2 5-5 9-2 3-3 4l-1 1v1h-1v1h-1v1h-1v-1l1-1v-6q0-3 0-6 0-4 4-8l3-5h1q0-1 0-1h1l1-1 1-1q1 0 4-2l3-2 3-2q3-2 4-3z" fill="#9f9797" stroke="#9f9797"/>
  <path d="m79 115h21q3 1 3 1t-3 2q-2 2-16 1l-13-1t1-1l2-1h2q3 0 3-1z" fill="#c1b3a3" stroke="#c1b3a3"/>
  <path d="m800 600h3q-1 1-1 2-1 2-3 3-1 1-4 7-2 6-5 6-4 0-6 2t-9 4q-6 2-9 3l-2 1v1h-1v1h-6v-1h-1v-5h1v-1h1v-1l6-2q6-2 7-6 1-3 8-6t7-4 6-2q6-2 8-2z" fill="#966957" stroke="#966957"/>
  <path d="m726 269h1v1q-1 1-2 2-2 1-2 2-1 1-3 2l-2 2q0 1-1 1h-1v-1q0-1 1-1 1-1 0-2l-1-2v-1q0-1 4-2 5 0 6-1z" fill="#ac8979" stroke="#ac8979"/>
  <path d="m325 692v-2l19 10q18 10 18 10h1t1 1 1 1q0 0-4 0h-4l-1-1v-1h-1q-1 0-3-1h-2v-2h-1l-1-1h-1v1h-1v1q-1 0-2-2t-5-2q-4-1-3-3 0-2-3-3l-3-2h-1q-1 0-3-2l-2-1 1-1z" fill="#956a43" stroke="#956a43"/>
  <path d="m272 483l1-1h2q1 1 2 2 0 1 13 6 14 6 20 6 7 2 12 4 6 2 15 2t11-1 2 0h1l1 8q2 8 2 11 0 2 2 14 0 11 3 12 2 2 4 9t7 6q4-1 7 7 3 9 9 13 7 5 8 5 2 0 2 2 1 2 2 3h2v1t-3 1l-2 1h1q2 0 0 2-1 0 0 1 1 0-1 5-1 6-1 10 0 3 2 4t2 3q1 1 2 2l1 1h1v2h2v1l1 1v2h-1v-2h-1l-1-1-2-1h-1v-1h-1v-1t-2-2q0-1-3-3-2-2-3-7-2-5-3-5-1-1-2-2-1-2-3-4-3-1-4-5-2-3-3-4l-1-2h-1t-1 0h-2l-4 2q-4 2-6 7t-5 5q-3 2-4 2t-3 0h-1l-2 1h-6v-1h-1v-1h-1v-1h-4v-1h-1v-1h-4q-4 0-12-3-7-3-14-4-8-1-8-3-1-2-2-2t-2 0q0-1-2-1t-2-1-2-1q-1 1-4-1-2-2-6-2h-4t-1-1h-1q0-1-1-1h-1q-1 0-2-3-2-2-4-5l-3-4v-9q-1-9 0-17t4-15q4-7 5-16 0-9 2-17t4-8q-1-2 0-3z" fill="#42332a" stroke="#42332a"/>
  <path d="m178 615l-4-3 3 1q3 1 3 1h2t1 1l1 1h1v1h1v1t1 0v1h-1q-2-1-4-1-1 0-4-3z" fill="#e0b577" stroke="#e0b577"/>
  <path d="m63 549l8-1h-1q-2 1-2 2-1 2-2 2t-1 1v1h-2l-2 1-2 1h-1v1l-1 1-7 2q-8 2-9 4-1 0-3 1h-3v-1h1l2-1h1v-1l-1-1v-1h1l3-1q2-1 4-2t4-3q1-2 3-3t10-2z" fill="#7c562e" stroke="#7c562e"/>
  <path d="m752 414l1 6q1 5 3 8t2 4-1 2l-1 1v1h-1v1h-1v1l-1 2v3h-1v-1h-2v-5h-1v1h-2q-2 0-3 0 0 0-1 2-1 0-2-2-1-3-2-4h-2v1h-1v-1h-2t0-1 0-4-2-7q-2-4-4-8l-2-3v-1q0-2 4-1 3 1 10 2t9 1q2 2 3 2z" fill="#4e362f" stroke="#4e362f"/>
  <path d="m25 567l9-2v1q0 1-3 2-3 0-3 1v1h-1l-1 1h-1v1l-1 1v1h-2v2l-2 1q-3 1-6 1t-3 2q0 1-1 1-2 1-4 1h-1v3h-5v-9h1v1h1v-2h4q4-1 7-3 3-3 12-5z" fill="#76532e" stroke="#76532e"/>
  <path d="m595 694l-2-4 3 2q3 2 6 7 4 5 10 10t13 7 11 2h3l3 1h6v1h-2v1l1 1v1h-1l-1 1h-2l-22 1h-22q0-1-5-1h-6l8-1 9-1h2l1-1 2-1h-2v-1l-1-1v-2h-1q-1 0-4-4-2-3-4-9t-3-9z" fill="#73655c" stroke="#73655c"/>
  <path d="m29 67h1v1q1 0 1-1h1q0-1 1-1h1l-4 5q-4 5-4 9 0 3 0 6v6l-1 1v7q0 6 1 6t1 1v1h-2q-3 1-3 3t-1 2l-1-1h-1v-1h-1v-1h-2v4q0 1 0 2v1l-1-1h-1v-1q0-1-2-3t-4-3h-2v1h-6v-2h3l1-1q1-1 4-2 2-2 2-6t1-11l1-7v-1q1 0 6-6 6-4 8-6 2-1 3-1z" fill="#dacacb" stroke="#dacacb"/>
  <path d="m202 70l5 1q5 1 7 2t2 1v1h1v1h1v1l1 2v2h-10q-3-1-7-1-5 0-15 2l-10 2h-5q-1 0-1 0-1 0-1-3v-3h1v-1h1v-1h3l3-2q3-2 13-2 10-2 11-2z" fill="#848890" stroke="#848890"/>
  <path d="m886 389v-1h1l11 8q12 8 13 8h1v1h1v1h2v1h1v1l1 1v1h-9v-1h-1v-1q-1 0-1-2 0-1-8-6l-6-6h-1v-1q-1 0-3-1-3-2-2-3z" fill="#beb872" stroke="#beb872"/>
  <path d="m1022 619h2v24q-1 1-32 22l-32 21q-1 0-1 1h-1q0 1 0 1h-1q-1 0-6 4-5 3-9 4l-5 2h-2v2q-1 0-1 4v3l1 1v1h-2v-1q-1-1-3-2-2 0-2 1l-1 1t-5 0q-6 0-7-2t-3-2q-1 0-1 1-1 1-2 1-1 1-1 0t-2-1q-1 1-2-1v-1 2q0 1-1 2t-1 2v1h-2v-1l-1-1q-1-1-1-2t-1-4l-1-2v-1h-1v-1h-6v1h-1v1q0 1-1 4v3l-1 1v-1h-1v-1l1-6q0-6 16-17t19-12q2-1 2-2h1v-1h1l10-7q11-7 11-7v-1h1l1-1 6-4q6-4 6-4h1l4 1q4 1 7-1 4-2 4-3l1-1h1l1-1 1-1h4v2h-1v1h-1v1h-1l-1 1-1 1h-1v1t-9 7l-9 6v1h-1v1h-1v1h-1v1h-2v2h2l1-1 1-1h2v-1h1v-1l12-8q12-8 14-9t2-1v-1t1-1l3-2q4-2 4-2v-1t1-1l11-7q11-7 12-8zm-71 46l1-1v3h-1v1h-3v-2h2l1-1z" fill="#52514a" stroke="#52514a"/>
  <path d="m211 630v-1l2 1q2 0 3 1l2 1q2 1 2 1v1h1l1 1q0 1 1 2v1h-1q-1 0-6-3l-4-2v-1t-1-2z" fill="#cd9d69" stroke="#cd9d69"/>
  <path d="m360 728l-1-5h1l2 1 15 8q15 8 21 10t8 4q2 0 3 1l1 1h2v1h1v1l12 6q12 6 13 7l1 1h2l1 1h1v1l1 1v1h-72l-1-1h-1v-3l1-1q0-1 2-1t1-4q-2-4-1-5t0-3-3-3q-3-1-4-5-1-2-2-5 0-2-2-3-1-1-2-6z" fill="#574733" stroke="#574733"/>
  <path d="m114 529h1l-5 4q-6 4-6 5t-2 2q-3 0-4 1h-2q0-1-2-2l-3-2q1 0 1-1t7-4l7-3v1l2-1q2-1 4-1 0 0 1 0 0 0 1 1z" fill="#885e32" stroke="#885e32"/>
  <path d="m620 514v-1l1 1 1 1v1h1v-1h1v3q0 2 0 4-1 1 0 1 2 0 2 2v2l2-1q2-1 3-1v-1h5v2h-1l-3 1-4 1h1v1h1v1h1q1 0 1 2 0 1 3 0 3 0 3 4 1 4 6 4 4 0 8 5t2 11q0 7-4 10-4 4-4 4l-4 2q-4 2-4 6t1 5v1h3v1l1 1h-3l-2-1-1-1h-1v-2h-1v-1q-1 0-2-2t-5-5q-3-3-9-12l-6-9v-1l-1-1v-1q0-2-2-8l-2-6v-3l1 1q1 0 2 0l2 1h2v-1l1-1v-5q0-4 0-7v-5h2v-2h1v1h1v-1z" fill="#d7614e" stroke="#d7614e"/>
  <path d="m756 500h4l3 4q3 4 1 9t-2 7q0 3 2 4 0 2 1 3l1 1v1h1v1h1-2t-3 0h-2v-1h-1v3h1l1 2q2 2 1 3-1 0-1 1t1 1 1 2 1 3 1 3q-1 1 0 2 1 0 2 2 0 3 2 3 2 1 4 3 1 3 4 2 2 0 2 2 1 1 3 1 1-1 2-2 0 0 2 1 3 1 8 5 5 5 7 5 0 0 2 2t3 3v1h1l2 1h4v-1h1l-3 7q-2 8-5 12t-4 4h-3q-2 0-8 2-6 1-6 2t-7 4-8 6q-1 4-7 6l-6 2v1h-1v1h-1v3q-1-1-3-1l-1-1h-1v1q-1 0-3 4-2 3-12 8-10 4-24 6-15 2-20 2t-8-2q-2-2-11-3l-9-2-1-1h-2v-1h3q3 0 2-4l-2-4v-7q0-5 7-8 6-2 7-3l2-1h2l1-1 1-1h1v-1h1v-1h-1v-1h-1v-1h-10q-4 0-8 0h-4v-1l1-1q1-2 3-6 2-3 2-6-2-4-4-5l-3-1h-2v-2h3v-1h1l1-1t5-2q5-3 7-4 2 0 9-2 7 0 10-2t8-9q5-6 7-7 1 0 1-10 1-10 2-10 1-1 1-2 0-2 2-4 2-3 3-11v-9h1v-1l4-1q3-2 9-2t6-1 3-2 8-1q4 0 6 0z" fill="#9c2a22" stroke="#9c2a22"/>
  <path d="m551 336h1v1h1v1h1l1 1h1v2h-1q-1 1-1 1-1 0-1 1h-1q0 1 0 1-1 0-1 1l-2 2q-1 2-4 10-3 7-4 8-1 0-1 7 0 8 2 12 0 5 1 6h-1q-1 0-2 2 0 1-1 1-1 1-1 2l-1 2h-1q-2 1-3 1-1 2-5 3-3 1-3-1-1-1-3-2-2 0-4-2-1-2-7-2t-11 0q-4 0-6-2t-6-2-5 2q-1 3-7 8-4 6-7 7-2 1-5-2t-6-3q-2 0-10-3l-9-3q-1-1-1-12 0-10 1-10 1-1 2-5l1-4h1v-1h1v-1h1v-1h1v-1t1-1q1 0 1 0v-1h2q2 1 10-2 7-3 12-4 4-1 8-5 5-2 8-3 2-1 3-1 1-1 1-4 0-4 1-4t1-1 4-3q3-2 8 0t17 1 19-1q6 0 7 1 1 0 1 1 0 2 1 2z" fill="#bd7b4e" stroke="#bd7b4e"/>
  <path d="m242 521l1-4h1q1 0 3 11 1 10 3 16 0 6 0 11t1 7l1 1v2t-1 1l1 2q1 1 0 1-1-1-1-1h-1t0-1q-1-1-1-1h-1t-2-2l-2-1v-2q0-2-2-4t-2-6v-6q0-2 0-3v-3q0-1 0-7l2-7q0-1 0-4z" fill="#80706b" stroke="#80706b"/>
  <path d="m581 628h1v1h1v1h-1v1q0 1 5 2t5 3q0 1-1 1t-1 1 1 2l1 1v1l-1 4q-1 5-2 8-1 2-1 12 1 11 2 11t2 5q0 5 1 6v2l2 4q1 3 3 9t4 9q3 4 4 4h1v2l1 1v1h2l-2 1-1 1h-2l-9 1-8 1h-2q-3 0-33-1h-30v-1h-4v-2h-2v-2h4l7-2q7-2 13-8 6-4 6-5h1q0-1 0-1 1 0 1-1h1q1-1 5-4 3-4 5-15t4-17 3-11l1-6q0-1 1-1 0-1 1-4l1-4h1v-1l1-1 1-1 1-3q2-3 3-3 2 0 2-1t1-1z" fill="#9c9190" stroke="#9c9190"/>
  <path d="m93 468h8t1 1l10 3q10 4 11 4 0 0 3 1h3v-1l1-1v3q0 4-1 4v1h-1q-1-1-10 4-10 5-11 5h-1l-1 1-1 1h-2v-1l1-1 1-2v-5h-2q-1-1-2-1 0-1-5-3-4-1-5-2 0-1-3-2l-3-1v-1h-1v-3l-1-2v-1h-1v-1h5q4 0 7 0z" fill="#9f9698" stroke="#9f9698"/>
  <path d="m717 278h1q1 0 2 1v1t-1 0l-1 1q0 1-1 1h-1v1l-1 3q-1 2 1 3t3 2h1q0 1 0 1h2q1 0 2 1h2q0 1 1 1h1l4 1h4v1h1l1 1q1 0 1 1 0 2-1 2h-2t-2 0q-3 0-7 0-4-2-10-2t-11-2l-4-2v-1l-1-1-1-1v-5h1v1l1 1v-2h1l1-1 1-1h2l1-1 1-1 3-1q3-1 4-2h1v-1z" fill="#d1a98f" stroke="#d1a98f"/>
  <path d="m48 115l3-1 7 1q7 1 12 1h4l-2 1q-1 1-1 1h-2l1 1q1 0 1 1t-6 2l-6 2h1l2 1 1 1h-3v1h-4q-2-1-4-1l-3-2h-2l-1-1v-1t0-3 2-4z" fill="#dac7b4" stroke="#dac7b4"/>
  <path d="m269 31l17 4q17 3 22 5 4 2 4 2h-4q-5 0-7 1-3 0 1 5 2 5 3 14t-1 12q-2 4-5 7l-3 3v1l1 1 1 1v1l2 2q3 2 3 2h-1q-2 0-6-2l-3-1h-1q-1-1-2-1 0 0-7-1l-7-1v4q1 2 1 3h1v1h-3l-1-1-1-1h-2v-1l-1-1v-1h-1v-1h-1v-1t3-1q2-2-1-4l-2-2v-2h-1v-1h7q8-1 10-1 2-1 2-2 0-2 2-11 0-9 0-11-2-3-4-4-3-2-8-2-6 0-10 1t-8 5l-4 4v2h-1v1h-1v1h-1v1h-1v1-10l5-6q4-6 9-8 6-2 7-2 1-1 0-3-2-1-2-2z" fill="#7b7778" stroke="#7b7778"/>
  <path d="m819 708l1-1-1-5q0-4 1-4 2 0 3 4 1 5 2 3t2-5q0-2 1-2 2 0 1 8-1 7-5 7-4-1-4-2-1-1-1-3z" fill="#dddbdb" stroke="#dddbdb"/>
  <path d="m216 628v-1l18 10q19 9 20 10v1q0 1-6 0h-6q-1 0-10-5l-9-5v-1q-1-1-1-2l-1-1h-1v-1t-2-1l-2-1v-1t0-2z" fill="#ab8e76" stroke="#ab8e76"/>
  <path d="m640 207l1 1h3l2 1 2 1h-2l-2 1-2 1h-1t-3 4l-4 4h-1q-1 0-7 4-6 3-6 4t-11 12l-11 12h-1v1h-1v1l-1 1-1 1v2h1v1h-1q-2-1-4-1-3-2-12-4l-10-3v-1t-1 0-7-4l-8-3q0-1-7-3l-7-3q-1-1-10-4l-10-3t-1-1-10-4l-9-3t-1-1h-1q-1-1-56-23t-71-28-20-6-7 4l-3 4h-1v1h-1v1h-1v1l-1 1v1h-2v-1l1-1v-1l1-1 1-1v-1l1-1 1-1 4-7q6-6 8-16 4-11 4-14 2-2 2-2v-1t1-1l3-3q2-3 3-4l1-1v-8h-2l-1 1-1 1h-1v1h-1v1h-1t-2 2l-2 2v1h-1v1h-1v1h-1v1h-2l-1 1h-1v-1h1v-1h1v-1h1v-1h1v-1h1v-1h1v-1h2v-1l1-1 1-1v-1l5-5q5-5 7-5 3 0 137 52 134 50 135 51z" fill="#a99e9e" stroke="#a99e9e"/>
  <path d="m316 680h1l25 13q26 13 30 16 5 3 6 3h1l1 1 1 1h2l1 1v3h-2v2h-2l-1-1-1-1h-1l-1-1q-2-1-6-2l-3-2q0-1-1-1h-1q-1-1-1-1v-1t-1 0h-1t-18-10l-19-10q-1-1-3-2l-2-2h-1q-1 0-3-2l-1-1v-1q-1 0-1 0 0-1 2-2z" fill="#95877e" stroke="#95877e"/>
  <path d="m182 611v-1l16 8q17 8 18 9 0 1 0 1h1v1q-1 1-1 1v1q-1-1-3-1l-2-1h-1q0-1-2-1-2-2-5-2h-3q-1 0-7-4l-6-3v-1q-1 0-1 0v-1h-1v-1h-1l-1-1q-1-1-1-1h-1v-1q0-1 1-1t0-1z" fill="#ad9179" stroke="#ad9179"/>
  <path d="m494 718l4 1q5 1 10 0 6-1 8-1h1v2h2v2h4v1q-1 0-7 1h-7l-1 1-2 1h1v1h-13q-12 1-33 1h-21v-1h-1v-4h1v-1l26-1q25-1 25-2h1l2-1z" fill="#8e775d" stroke="#8e775d"/>
  <path d="m310 266h5l-1 1-1 1h-1q-2 0-6 2h-3v1h-4l2-2q2-1 3-2 2-1 6-1z" fill="#a49c9d" stroke="#a49c9d"/>
  <path d="m536 397h2v1l1 2v3l-2 3q-1 4-1 8t2 4 3 2q1 3 1 4l-1 2-1 1v3h-1v1h-1v-1h-2q-2 0-23-4l-21-4t-2-1q-2 0-3-3l-1-2h-3q-1 0-1 2t-4 3l-5 1h-7v1h-2q-3 1-9-1l-6-1q0-1-5-1h-5q-1 0-1 1l-1-3q-1-4 0-12v-10h2l9 3q8 3 10 3 3 0 6 3t5 2q3-1 7-7 6-5 7-8 1-2 5-2t6 2 6 2q5 0 11 0t7 2q2 2 4 2 2 1 3 2 0 2 3 1 4-1 5-3 1 0 3-1z" fill="#3e382f" stroke="#3e382f"/>
  <path d="m741 279l1-3h5q5 1 5 4 0 2 4 1t6-1q3 0 9 0 7-1 10 0 4 0 4 1 1 0 1 1v1l1 1 1 1v4q0 1-2 3 0 3-5 8l-4 6q-1 0-1 0v1q-1 1-1 1h-1t0 1q-1 1-1 1h-1t0 1l-1 1h-1l-2 1-1 1h-2v1h-1v-5q0-3-1-5t-3-5q-2-2-3-5t-3-3q-3 0-4-2l-2-1v-1t-1 0h-1t-2 1l-1 1v-1q1-1 1-3t-1-2h-1l-2 1h-1v-1q1 0 1-1t1-4z" fill="#8d5e4b" stroke="#8d5e4b"/>
  <path d="m46 319v-1h2v7l1 2 1 2v-1h5v-1l1-1v-2h1l1-1q1-1 2-2l2-1v2l-1 2-1 2v4h1v1l-4 6q-4 7-4 7h-1l-2 1h-3v-1l-1-1v-1h-1v-1h-1v-11q0-10 1-10v-1h1z" fill="#a79ea0" stroke="#a79ea0"/>
  <path d="m912 363l-2-2 38 15q38 14 39 15h1l8 3q7 4 10 3 2-1 4-2 1-1 2-2l1-1q1-2 2-2h1v2h-1v1h-1v1h-1l-1 1-1 1h-1v1q-2 1 0 6 0 5 4 17 4 11 5 12l1 2 1 4q2 4 3 4v159l-1 1q-1 0-7 5-7 5-17 11l-10 8h-1v3q-1 1-1 1h-1t0 1l-1 1q-1 1-1 2v2h-2q-1 0-1-2 1-1-2 0l-3 1h-1q-1 1-4 3l-3 2h-2l-2-1h-3v-2h2v-3q1-2 1-6 0-3 3-8t3-12 0-12q0-4-2-8l-1-4v-1q-1-1-3-9l-2-9v-1q0-2-5-12l-5-9t0-1-4-3q-3-3-4-5t-5-2h-4v-1h1v-3q0-2 6-8 4-5 10-12 4-7 7-12t5-10q4-4 8-14 4-11 4-17t-2-12-5-7l-3-2h2v-3h1v-1h1v-2l-1-1-1-1t-8-13q-8-12-14-21-7-8-12-11t-8-5q-2-2-7-4l-5-2v-1h-1v-2q1-2-1-4z" fill="#b3a7a7" stroke="#b3a7a7"/>
  <path d="m362 336h3v1h1v2h1v1h1v3h-1v1h-1v1t-5 2l-4 1v1h-3q-4-1-8-5l-4-4h-1v-1h-1v-1l-1-1v-1h10q10 0 11 0 0 0 2 0z" fill="#ecb977" stroke="#ecb977"/>
  <path d="m724 398h10q9 0 13 1h4v1q0 2 1 2t1 2v3l-1 3q0 4 0 4-1 0-3-2-2 0-9-1t-10-2q-4-1-4 1v1t-1-1l-1-1v-5q0-3-1-4l-1-1h1v-1h1z" fill="#966e4b" stroke="#966e4b"/>
  <path d="m339 54v-1l6 4q6 5 10 9 3 5 5 10 0 6 0 11v5-6l-1-1v-1h-3q0-1-1-1v-1q-1-1-1-2 0 0-3-8-3-7-5-10l-2-3q0-1-2-2-3-2-3-3z" fill="#c6b6b5" stroke="#c6b6b5"/>
  <path d="m298 271h5v2q0 3 1 2 1 0 1 1t-3 2q-3 2-4 2h-2v2h-3v1h1v1h12q6 0 6 1t2 1q3 0 4-1h2v1h-1v1h-1v2h4q0 1-8 3-7 4-49 20t-95 34q-54 20-64 21-11 1-20 4l-9 3h-1l-1 1h-1v-2h1l1-1h1v-1h1v-1h-5l1-1 1-1h1q2 0 13-4t10-5q-1 0-1-1l1-2h1t4-2l3-1h1q0-1 0-1h3l49-19q50-19 52-19h1l1-1 2-1h-2q-2 0-4-2h-2v-1h1l1-1h2l31-13q31-12 31-12h1l1-1h2l2-1q2-1 1-2 0-1 5-3t5-2h2l1-1 2-1h2v-1z" fill="#454846" stroke="#454846"/>
  <path d="m219 386h1v1q0 1-11 7t-12 7l-1 1h-2q-1 0-2 1h-1v-1q-1-2-1-2v-1l1-1h3l1-1 1-1 11-4q11-6 12-6z" fill="#ada1a0" stroke="#ada1a0"/>
  <path d="m748 261h2l4 1q3 0 3 1h-1q0 1-1 2t-3 3-4 4l-1 2h-8v1h-3q-2 1-4 1h-1l-3 1h-2v-1h3v-1h1v-1l-1-1v-1h2v-1h1v-1q2-2 2-2v-1t1-1h1t0-1l2-1q2-2 6-2 3 0 4-1z" fill="#af8b84" stroke="#af8b84"/>
  <path d="m124 516l3-1v1q-1 2-1 6v3l-3 2q-3 1-5 2h-4q-1-1-1-1-1 0-1 0-2 0-4 1l-2 1v-1h1q1-1 1-2 1-2 8-5 6-2 6-3t2-3z" fill="#785733" stroke="#785733"/>
  <path d="m276 87v-1l7 1q7 1 7 1 1 0 2 1h1v1q1 1 1 2t-3 2l-2 2h-6q-2 0-3-1l-2-1t-1-1h-1v-2q0-2 0-3v-1z" fill="#908e94" stroke="#908e94"/>
  <path d="m8 18l1-1 4 1q3 1 8 8 5 6 5 6v1l-2 2q-2 3-2 3h-2q-1 0-2-1 0-1-4-3-3-2-3 2l-1 4v-3l-1-2-1-2v-2l-1-1q-1-1-1-4l-1-4q1-1 1-2v-1q0-1 2-1z" fill="#c68184" stroke="#c68184"/>
  <path d="m34 0h75l1 2q2 2 4 2 2 1 2 1v1l24 9q24 9 44 10h21v1h-13q-13 0-34 3l-22 2h-3q-3 1-16 3l-13 3h-2q-1 1-20 7l-20 6-2 1-1 1h-1l-1 1h-1v-2h1l1-1h1t1-3l2-3v-3h-2q-3-1-10-3-6-2-10-2-3 1-5 4l-1 4-1 2v1h-1v-4l-1-1q-1-2-1-4 0-3-2-4l-2-1v-1t-5-6q-5-7-8-8l-4-1v-1l1-1v-2h2v-2l4 1q4 1 4 2 1 2 5 2h4l1-1 1-1 1-2q2-2 2-6 0-5 0-6z" fill="#b9abad" stroke="#b9abad"/>
  <path d="m357 127v1h-1t0 1v1t-2 2q0 3-4 14-2 10-8 16l-4 7-1 1-1 1v1l-1 1-1 1v2q-1 0-1 1l-3 6q-4 6-4 7v1l-1 1h-1v1l-1 1-1 1v1h-1v1h-1v-5q0-6 3-9t5-7l2-4v-2l-1-1q-1-1-1-1t-3 0q-3-2-5-4-2-3 0-8 1-5 2-5t1-1l1-1v-4h-1v1h-3q-2 0-10-1h-7v-1h3l2-1 1-1 9-3q8-3 8-4h2l1-1 8-4q8-4 9-5h1l1-1h5q3-1 3 0 0 2 1 3z" fill="#454748" stroke="#454748"/>
  <path d="m18 582l4-1h1v1h2v1h-1v2h-1v1h-2v1l-5 3q-6 2-6 3t-3 2-4 2l-1 1-1 1-1 1v-12h3q3 0 7-2 4 0 4-2 1-1 4-2z" fill="#eabf77" stroke="#eabf77"/>
  <path d="m734 264v-1l1 1q1 0 0 1v1h-1t0 1v1t-2 2v1h-1v1h-2v1l1 1v1h-1v1h-3v1h-2q-2 1-3 1l-1 1q-1 1-2 0h-1v-1h1l3-2q3-3 3-4 0 0 1 0v-1q1 0 1-1 0 0 1 0v-1l1-1t1 0v-1l1-1q2-2 2-2h2z" fill="#c4aba9" stroke="#c4aba9"/>
  <path d="m248 482v1q0 1-1 3v5q-1 3-1 5v2l-1 2q-1 3-2 3t-2 2-1 4v2t-1 2v2h-1l-1 1h-1v2h-1v1h-1v1l-2 4q-2 5-3 5-1 1-1 1v4-1t-1-2l-1-2v-1h-1v1h-1v5q-2 4-2 5t-2 5q0 3-1 3v1h-2v1h1v2h-2l-3-1h-1q-1 0-1-1t-1-1-2-2q0-2 0-4 0-1-6-2-6 0-5-1t-3-1q-5-2-3-4t-1-2q-2-1-2-6 0-4-2-4-1 0-4-5-2-6-4-5l-1 1v-5q1-6 1-10v-4h1l1-1 1-1h1v-5l1-1 1-2v2l1 2 1 2v-1q0-1 1 1 1 1 1-2v-2l3 4q3 4 7 4 5 0 6 2 0 1 1 1 1 1 0 1-1 1 3 2 4 0 4 2t6 4 7 2 1-1 2-1q1 0 2-1 0-1 2 0 1 1 7-9 5-9 7-12 2-2 2-2z" fill="#c7b8b9" stroke="#c7b8b9"/>
  <path d="m49 286v-6l1 2q0 2 1 7l1 5v10q0 9-1 13l-1 4v6l1 1h-1v1l-1-2-1-2v-20q0-13 1-19z" fill="#c1b3b4" stroke="#c1b3b4"/>
  <path d="m396 268l-2 3q-1 3-2 5-2 2-2 2-1 0-1 1h-1q0 1 0 1 0 1-3 6-3 6-3 16 0 9-14 15-13 7-22 6l-9-1t-12-2q-11-1-13 4-1 6-19 12t-29 13-15 11l-3 5-1 1-1 1v1h-1v1h-1v1l-2 2q-2 2-2 4-2 2-2 2v1h-1q-1 1-8 4l-7 3t-1 0v1h-1q-2 1-12 5l-10 4-1 1-1 1h-3l-1 1t-3 1q-3 2-7 0l-3-2h-1t-10-9l-10-8h-1v-1h-2v-1h-1v-3l1-1 1-1h1q1 0 7-4l6-3v-1h1t1-1h2q0 1 0 0v-1t1 0h1q1 0 1 0h1q1 0 1-1l67-31q68-32 69-32h1v1q0 1 1 1h1l1-1 1-1h3l37-16q37-16 38-16z" fill="#585651" stroke="#585651"/>
  <path d="m623 434l13 3q12 3 32 3 19 0 20-1h4l1-1h2l-2 4q-3 5-2 6h-1q-1 0-18 3l-16 3q-1 0-1 1h-3q-2 1-6 1-3 2-6 3-4 1-10 5l-7 3h-1q0 1 0 1h-3q-3 0-3 1h-1v-2q0-2-2-2t-2-1q-1-1-5-5-5-3-8-4l-2-1-1 1h-1v-8h1l1-1 8-2q9-2 9-4 0-3 5-4 4-1 5-2z" fill="#c45131" stroke="#c45131"/>
  <path d="m287 224h1l-6 6q-6 5-6 6 0 2-1 12v10h-1v1l-1-2-1-2v-7q0-6-1-6l1-5q2-5 8-9t7-4z" fill="#a29898" stroke="#a29898"/>
  <path d="m749 442h3v1h1v3l1 3v2h1v1h2l1-2q1-2 6-1t7 1q1 1 5 6 4 6 5 7t1 1v3t-3 7q-3 6-4 8-2 2-7 2t-7-2h-2l-1-1h-1v9h-3v-1h-1v-1q-1 0-2-2-1-1-6-3l-5-1v-1h2l2-1v-2l-1-1q-1-1-2-1t-1-2q-1-2 2-3 2-1 1-1-1-1-1-4-1-3 1-4 2 0 2-5 1-5 1-5 2 0 2-4 0-5 1-6z" fill="#743d3a" stroke="#743d3a"/>
  <path d="m330 348h1t1 1v1l8 7q7 7 7 7 1 0 1 0v2h1l3-1 2-1 10-4q10-4 12-5 1-1 2-2h1v-1l1-1v-2h1v2l1 3q0 4 0 5v1l4 3q4 2 4 3t-2 1q-1 0 0 2 0 2 5 3 5 2 6 4t2 2 1 2q0 1 2 2 3 2 3 2h1l1 1h1v2h1l1 1h-2v1h-1v1h-3l-1-1q-1 0-1 1-1 0-5 0t-5 2q0 2-2 2-3 0-6 2-2 2-6 2-5 2-6 3t-3 1q-2-1-2 0 0 2-1 2t-2 3q0 4-2 4-1 1-2 3-2 2-2 1t-2 2q0 3-4 6t-6 4q-1 1-2 3 0 2 1 2t1 1-4 1q-3 1-3 3 1 2-5 9-6 6-7 7-2 1-3 2-1 2-2 2-1 1-2 4 0 3 0 3 1 1 0 2 0 2-5 4t-23 0q-17-2-18-4 0-1-3-1t-3-1-4-3l-3-1-1-1h-2v3h-1l-1-1h-1v4h-1v-2l-1-5q-1-5-1-9v-6q0-2-1-3 0-2-2-2l-2-1v-1q-1 0-1 0 0-1 0-9t-2-9q0-2-2-10 0-9-3-10t-4-10l-1-9v-1t2-2q0-2 2-4l2-2v1h1v1h1v-1l1-1 1-1v-1h6q4 0 4-1t3-1 6-1 3-2 4-3q4-1 5-2 1 0 1-1t7-2 9-3q2 0 8-1t5-2q0-1 4-1 5 1 4 0 0-1 3-2 4-2 5-2 1-2 4 1t3 3zm-60 113q-1-2 5-1 6 0 8 1t1 3q0 2-6 0-6 0-8-3z" fill="#e97539" stroke="#e97539"/>
  <path d="m334 605h9v1h3v1h1v1h-1l1 1 1 1h6q6 0 9 10t0 16q-3 5-4 6-1 0-2 1l-1 1v-3h1v-1h1v-3q0-1 0-7-1-5-2-5t-1-1-5-3q-4-2-8-4l-4-2h-2q-1 1-10-1h-8l-1-1-1-1h-1v-1h-1v-1h4v-2h-1l-1-1v-1h6q6 0 12-1z" fill="#6c615d" stroke="#6c615d"/>
  <path d="m653 216v-2l1 5q0 5 0 5t0 1q-1 1-9 8l-8 8h-1q0 1 0 1-1 0-1 1h-1q0 1 0 1-1 0-1 1h-1q0 1 0 1-1 0-1 1v1h-1v1h-1v1h-1v1h-1v1h-1v1h-2v-2h1v-1h1v-1h1v-1h1v-1h1v-1h1l10-12q12-12 12-13t1-3v-2z" fill="#cda16e" stroke="#cda16e"/>
  <path d="m167 104h2l-1 1v1h-1v1h-1v1l-1 2-1 1v6l12-2q11-1 25 1 13 2 15 3 0 1 1 1v1h-1q-1-1-2-1-2 0-3 2l-1 1h-4q-5 1-8 1t-6 0q-4 2-5 4t-4 6l-3 4-1 1-1 1h-3q-1-1-1-1v-1t-1 0q-1-1-1-1v-1t-3-2q-2-2-5-3t-5 1l-2 2h-1t0 1h-4l-4-1h1v-1q1 0 2-1 1 0 1-3v-3l-1-1v-1h-1q-1 0-4-1-2-1-5-2l-3-2-1-1-1-2v-2l-1-1-1-1v-2h2v2h12q11-2 12-4 2-3 4-3 1-1 3-1z" fill="#bbc089" stroke="#bbc089"/>
  <path d="m47 272l1-1v5q0 3 1 4v6q-1 6-1 19v13h-2v1h-1v-4q-1-4-1-6t1-19q1-18 2-18z" fill="#7d7979" stroke="#7d7979"/>
  <path d="m50 232l2 1v24t-1 5l-1 6v2l-1 2-1 1v-9l-1-9-1-9-2 3q-2 3-3 3h-1v-1q0-1 2-3t2-4v-4l1-2q1-3 2-5 1-1 3-1z" fill="#7a7878" stroke="#7a7878"/>
  <path d="m561 656l7-8-1 6q-1 5-3 11t-4 17-6 16q-5 4-6 5h-1v-1l1-1v-5q0-1 1-3 0-1-2-1t0-4 3-8l2-4q0-1 2-6 0-5 7-14z" fill="#666464" stroke="#666464"/>
  <path d="m514 254l1-1h1l-1 3q-1 2-1 4t0 2v1h1q0 1 1 1v2q0 1 0 1-1-1-2-1l-1-1q-1-1-3-1-1 0-4 2-2 2-8 0-6-1-6-4 0-2-2-3l-2-1v-1h-1v1h-1v-1l-1-1v-1h4l4-1h3q2 0 2 0h3q2 0 3 1 0 1 1 1h2v1h1v1h1q1 0 1-1 1-1 2-2l1-1h1z" fill="#959756" stroke="#959756"/>
  <path d="m708 379v-1h2l6 5q6 4 7 9 0 4-1 5h-1q-1 0-3-4t-4-5q-2 0-4-5l-2-4z" fill="#e8ccb9" stroke="#e8ccb9"/>
  <path d="m66 451l4-2 6 1q6 2 10 4 4 4 6 5t4 4 3 3l1 1h2v2h-1l-1-1h-7q-3 0-7 0h-6t-1-2q-1 0-7-4-5-4-10-4h-8v-1h1v-1h1v-1h1v-1h3l1-1q1-1 5-2z" fill="#6c6f74" stroke="#6c6f74"/>
  <path d="m690 448h1l1 4q2 5 2 6v1h-1q-1 0-1-1t-2-1q-1 1-2 2l-2 1t-8 2q-7 4-20 6-14 4-18 6l-3 2h-1l-2 1h-2v-1h1v-1h1v-1h2l1-1h1v-2h-1v-1h-2l-1 1h-1v-2h1l2-1 7-2q7-2 7-4t2-4q3-2 3-3 1 0 1-1l16-3q17-3 18-3z" fill="#e69d9a" stroke="#e69d9a"/>
  <path d="m468 592h5q2 0 2 1h-1q-1 1-5 3t-15 2h-11l3-1 2-1h9v-1h1v-1q1 0 4-1 4-1 6-1z" fill="#6a5b4a" stroke="#6a5b4a"/>
  <path d="m562 390h2v1q-1 1 1 1 3 1 2 4t-2 3h-3q-1 1-6 0h-6v-1h-1l-1-1v-2l1-1v-1l6-1q6-2 7-2z" fill="#e89661" stroke="#e89661"/>
  <path d="m22 129l-1-4h1q0 1 0 1h1l1 1q1 1 1 2h1v1l3 3q2 3 3 4l2 5q2 4 2 5v1h-1q-1 0-6-7l-5-7v-1t-2-4z" fill="#d3bcb1" stroke="#d3bcb1"/>
  <path d="m50 560l7-2h1v1l-1 1v1h-1l-1 1h-1v1l-4 3q-4 2-8 5t-7 3q-3 2-4 2h-1l-1 1h-1v-1h-6v-2h2v-1l1-1v-1h1l1-1h1v-1q0-1 2-1t2-1l1-1h1t0-1h4q2-1 3-1 1-2 9-4z" fill="#bf833f" stroke="#bf833f"/>
  <path d="m318 45v-1l10 4q10 4 10 5h1q0 1 1 1l2 2q2 2 2 3l2 3q2 3 5 10 3 8 3 8 0 1 1 2v1q0 1 1 1v5l1 3v2h-1v-1l-1-1-1-1v-1h-1v-1h-1v-1h-1t-7-5q-7-4-10-15-2-11-6-15l-4-3-1-1q-1-1-3-2t-2-2z" fill="#8d8583" stroke="#8d8583"/>
  <path d="m691 262h5q3 0 4 1 0 1 0 2v1l-1 1v1q-1 1-1 2t-2 2h-2q0-1-1-1v-1q-1 0-1 0t-2 0h-3l1-3q0-3 1-3t1-1 1-1z" fill="#936f60" stroke="#936f60"/>
  <path d="m46 220h3v1h1v1h1v1h1v1h1v1h1l1 3q1 3 2 8v4q-1 0-1 0t-1-2-2-4l-1-1-2-1q-2 0-3 1-1 2-2 5l-1 2v-5h-1v-1h-1v-6l1-2 1-2v-2l1-1 1-1z" fill="#c0b3b3" stroke="#c0b3b3"/>
  <path d="m676 297v-1h1v3q-1 3-2 5t-39 2h-37l-1-1-1-1 39-2q38-1 39-2 1-2 1-3z" fill="#cebcba" stroke="#cebcba"/>
  <path d="m0 11v-11h34q0 1 0 6 0 4-2 6l-1 2-1 1-1 1h-4q-4 0-5-2 0-1-4-2l-4-1v2h-2v2l-1 1v1l-1 1q-2 0-2 1h-2l-1 1h-2v1l-1 1v-11z" fill="#e4d1d2" stroke="#e4d1d2"/>
  <path d="m860 341l24 10q24 9 25 10h1q0 1 1 1h1l1 2q1 1 0 3v2h-3l-3-1h-3q-3 0-5-1t-13-3q-11-4-23-6l-12-4h-2 1v-1h1v-1h1v-2h1v-1h1l2-4q3-3 4-4z" fill="#b3a6a5" stroke="#b3a6a5"/>
  <path d="m274 77h-8q-2-1-8-3-5-4-6-8l-2-4v-1h1v-1h1v-1h1v-1h1v-2l4-4q4-4 8-5t10-1q5 0 8 2 2 1 4 4 0 2 0 11-2 9-2 11 0 1-2 2-2 0-10 1z" fill="#a49797" stroke="#a49797"/>
  <path d="m14 115v1h1l1 1 1 1q1 2 1 3v1l1 1q1 1 1 2h1l1 4q2 4 2 4v1l5 6q5 6 5 7h1q0 1 1 1l2 8q2 8 3 9v1l2 4q3 5 4 8 2 2 2 3h1q0 1 0 1h1l1 2q0 1 1 1v1h1l5 8q6 8 7 8 0 0 0 1h1q0 1 1 1 0 0 0 1h1q0 1 1 1 0 0 0 1h1q0 1 1 1 0 0 0 1h1q0 1 1 1 0 0 0 1h2v1h1l1 1 1 1h1l6 5q6 5 8 7 3 0 4 1h2l8 5q8 4 10 6 0 1 1 5t1 9v5l-4 6q-4 7-8 9-3 2-10 5-6 3-6 4t-1 1-3 4-3 5 0 2q1 0 0 3-1 4-2 4v1h-1v1h-1v1q-1 0-1 1 0 0-1 0v1q-1 0-1 1 0 0-1 0l-4 3q-4 2-5 4-1 1-2 2-1 0-2 2-2 2-2 3l-2 1q-1 1-2 2l-1 1h-1v2l-1 1v1h-4l-1-1v-6l1-4q1-4 1-13v-19l1-3q1-4 0-10v-7h1v-5l1-3q1-3 1-10l1-7v-4q-1-5-2-8l-1-3h-1v-1h-1v-1h-1v-1h-1v-1h-1v-1h-3l-1 1-1 1v2l-1 2-1 2v5l-2 4q-2 4-6 5-3 0-6 1l-2 1-9 6q-9 7-9 7 0 1-1 1h-1v1h-1v1h-5v-150h6v-1h2q2 1 4 3t2 3z" fill="#e7d8d6" stroke="#e7d8d6"/>
  <path d="m20 388l12-4h1l1 1h1v1l-1 1v1l-16 6q-15 6-16 7l-1 1h-1v-7h1l1-1h2l2-1 1-1h1q1 0 12-4z" fill="#a09899" stroke="#a09899"/>
  <path d="m172 136v1q0 1 0 1h1v2q-1 0-1 1-1 1-7 2l-6 1-3-1h-2v-1t-1 0q-1-1-1-1v-1q0-1 2-3l2-2t1-1l2-2q2-2 5-1t5 3q3 2 3 2z" fill="#928b5b" stroke="#928b5b"/>
  <path d="m74 472h2l2 1 1 1h2l1 1h2v1l3 1q3 1 3 2 1 1 5 2 5 2 5 3 1 0 2 1h2v5l-1 2-1 1v1l-48 23q-48 23-50 23h-1l-1 1-1 1h-1v-25h2l2-1h4l1-1 1-1h1v-1h1v-1h1v-1h1v-1q0-2 0-6t0-6l-1-1v-1q-1 0-1 0v-1q0-1-2-3t-2-4v-4h1t1-1v-1h2q2 0 10-4l7-4h1q1 0 10-5l8-4h7q7 1 13 3 5 4 6 4z" fill="#cebfbf" stroke="#cebfbf"/>
  <path d="m736 275h4l1 1h1l-1 3q-1 3-1 4t-1 1v1h-1q-2 1-4 0-3-1-9 1-7 2-5 3 1 1 1 2v1h-1q-1 0-4-2-2-2-1-4l1-3v-1h1q1 0 1-1l1-1q1 0 1 0v-1l1-1q1 0 3-1h4l3-1h1q2 0 4-1z" fill="#806762" stroke="#806762"/>
  <path d="m254 648v-1l6 3q5 2 6 3v3q1 2 2 3 2 1 2 1h1l2 1q2 1 2 2t1 1h1v1l1 1v1l1 1v1h-1l-1-1h-1v-2h-2l-1-1q-1-1-16-9l-15-8h6q6 1 6 0z" fill="#b08762" stroke="#b08762"/>
  <path d="m950 698v-1l4 1q3 2 4 2 0 0 0 1h1v3q-1 2-1 2t-4 2l-3 1h-1v-1h-1q-1 0-1-5v-4t1-1q1 0 1 0z" fill="#d9cbba" stroke="#d9cbba"/>
  <path d="m215 604l1-1 14 7q14 6 14 7l-1 1q-1 0 2 2 3 1 2 2-1 2-1 1 0 0-1 1v1h-1q0-1-2-1l-1-2h-1q-1 0-12-6l-12-6-1-1-1-1h-1l-1-1q-1-1-2-1v-1h2q2-1 3-1z" fill="#826d66" stroke="#826d66"/>
  <path d="m975 635h1v1q0 2-2 3-1 1 0 1t2 0h1l-1 1q0 1-4 3-3 2-7 1l-4-1 1-1q1-1 2-1h1l1-1 1-1h1l3-2q3-2 4-3z" fill="#726963" stroke="#726963"/>
  <path d="m642 572l4-2v5h1v1h2v1h1v2h6q6 0 6 1v1q-1 1-1 1h-2v2h2l3 1q2 1 4 5 0 3-2 6-2 4-3 6l-1 1v1h4q4 0 8 0h10v1h1v1h1v1h-1v1h-1l-1 1-1 1h-2l-2 1q-1 1-7 3-7 3-7 8v7l-1-1h-1v-1h-1v-1h-1v-1h-1v-1h-1l-1-1h-1v-1q0-1-1-2l-1-1v-1q0-2-1-6l-1-4q0-1-1-1v-1q-1 0-1 0v-2q0-1-2-3t-3-9l-2-6t-1-1h-1q0-1-1-1h-1v-1q-1-1-1-5t4-6z" fill="#ba4631" stroke="#ba4631"/>
  <path d="m485 241l3 2q3 3 4 3 0 0 1 1h1v1q-1 0-5 2l-4 2-1 1-1 1h-1v1h-18v-1q0-2 1-2l1-1t1-1h1q0-1 1-1v-1l5-2q6-4 8-4 3 0 3-1z" fill="#a1a263" stroke="#a1a263"/>
  <path d="m686 460l-2 2q-2 1-1 2 0 2 3 2 2 0 2 1h-1q-1 1-3 1-1 1-4 5l-4 4h-1q-1 1-3 1-1 0-21 4l-20 4v1h-1v2h-2v-2h1v-1h1v-5h-1v-1h1v-1l2-1q1 0 1-1h1l2-1h1l3-2q4-2 18-6 13-2 20-6 8-2 8-2z" fill="#df7570" stroke="#df7570"/>
  <path d="m52 180v-2h1q1 0 7 8 6 7 7 12 1 4 4 8 3 3 4 4v1h-1q-1-1-2-2l-2-1v-1h-1v-1h-1v-1h-1q0-1-7-10l-6-9h-1v-1q-1 0-1-1l-1-2h1t0-2z" fill="#b5a297" stroke="#b5a297"/>
  <path d="m957 582l1-7h1l1 7q2 6 3 6t1 1h1l-4 9q-4 10-5 10 0 0 0 1 0 0-1 1 0 1-1 1-1 1-7 8t-8 8-3 3l-2 3v1l-1 2v1h-3l-2-1h-1v-1h-1v-1h1v-1h1v-2h1v-1h1v-1t2-1q0-1 3-6 2-4 3-4t9-11q7-11 8-15 1-3 2-10z" fill="#57524d" stroke="#57524d"/>
  <path d="m595 546l1-1 3 5q3 6 3 11v5l1 1 1 1 2 4q1 5 2 5t2 5q0 6 5 12 5 5 7 9t2 5 3 2 4 3q1 3 4 4 3 2 7 6 4 3 4 4h1v1h1l1 1h1l5 4q5 3 5 4h1v1h2l1 1-2 2q-2 2-6 18t-6 20-4 7q-3 2-7 5-3 2-5 3-1 2-2 5-1 4 0 4t1 3q0 4 1 4 2 0 2 1t1 1 2 1l1 1h1v1h1v1h1v1h1v1h1v1h-3l-3-1h-3q-4 0-11-2t-13-7-10-10q-3-5-6-7l-3-2v-2q-1-1-1-6-1-5-2-5t-2-11q0-10 1-12 1-3 2-8l1-4h3v1h1v-2h1l1-1h2v-2q0-3 2-6l1-2h1t0-1h1l1-1 1-3 1-3v-1l1-1q1-2 1-8 0-5-7-9-7-3-8-5t-2-2-2-3-2-8 1-7q2-3 4-12t1-14q-1-6 0-6zm1 8t0-1 0 1z" fill="#3b3935" stroke="#3b3935"/>
  <path d="m499 224l-3-3 10 3q10 4 11 5t1 1-1 1l-1 1h-4v-1h-1v-1h-2l-1-1q-1-1-4-1-2-2-5-4z" fill="#c9bcbc" stroke="#c9bcbc"/>
  <path d="m478 229l1-1h4q1 1 0 3-1 3-1 5t-1 2q-1-1-1-1v-1t-1 0h-1t-1-1q-1 0-1-3l1-2t1-1z" fill="#dcd3bc" stroke="#dcd3bc"/>
  <path d="m721 473l5 3q4 2 4 3t1 1 4 0h3l1 1h1v1l5 1q5 2 6 3 1 2 2 2v1h1v1h1v2q1 1 1 1v1h1v1h1v1l1 2 1 1v1h-4q-2 0-6 0-5 0-8 1t-3 2-6 1-9 2l-4 1v1h-1v1h-2v-1l-1-1v-3l1-2 1-1v-7q0-6-1-6t-3-2l-2-2 1-1q1-1 3-5 1-4 3-4t2-1z" fill="#b62920" stroke="#b62920"/>
  <path d="m47 124h2l3 2q2 0 4 1h2v1h2l2 1 1 1 12 1q12 1 17 2h6v1q0 1-3 1l-3 1h-19v1h-3q-3-1-10-4l-8-3-1-1q-1-1-2-1l-1-1v-1t-1 0q-1-1-1-1v-1t1 0z" fill="#a28c6e" stroke="#a28c6e"/>
  <path d="m578 512h1v8q0 8-1 8-2 1-3 7t-2 7v2h-1t-3 0h-3v-1q0-1 1-1 1-1 1-10 0-8 3-8 3-1 3-2 0-2 2-2 1-1 1-4 1-3 1-4z" fill="#a07658" stroke="#a07658"/>
  <path d="m110 2l-1-2h915v365h-2q-2-1-88-34l-87-33q-1-1-1-1v-1t-5 0q-4 0-7-3-4-2-4-6v-5q0-1-1-1v-1q-1-1-2-4-2-2-3-2t-1-1q-1-1-4-5l-4-5v-1q-1 0-3-2-2-1-19-5l-18-4q0-1-5 1-5 0-11 1l-6 1v-1h-1v1h-1l-1-1-2-1h-2l1-1 1-1h2q2 0 4 0h1v-1h1v-1h3l-2-1-2-1h-5v1h1v1h-1q-2 0-6-1-5-1-8 1-2 0-3 3-1 2-3 2l-1 1h-3l-1 1-1 1h-2q-2 0-8 1t-10 1l-3 1h-1q-2 1-4 2l-3 1h-3t0 1h-1q-1-1-30-1l-29-1v-1h-2l-1-1-1-1 1-1 1-1v-1h1v-1h1v-1q0-1 1-1t1-2q0-1 6-6t9-9q3-5 4-5t2-2q1-1 1-2v-1q0-1 0-1t0-5l-1-5q-1-1-3-2l-2-2-2-1-2-1h-3l-1-1q-1-1-135-51-134-52-137-52-2 0-7 5l-5 5v1l-1 1-1 1v1h-5v1h-1v-2h1v-1h1v-1l1-1 1-2v-1t0-1v-1l2-3q2-2 2-3v-1l2-2q2-2 2-5v-8q0-5 0-11-2-5-6-10t-9-8l-5-4q0-1-1-1h-1q0-1-10-4l-9-4v-1q-1 0-1 0-1 0-4-1l-2-1t-4-2q-5-2-22-5l-17-4h-1q0-1-3-1t-31-3l-29-2h-21q-20-1-44-10l-24-9v-1t-2-1q-2 0-4-2z" fill="#f3e7d0" stroke="#f3e7d0"/>
  <path d="m496 221q0 1 1 1h1l2 2q2 2 4 4 3 0 4 1l1 1h2v1h1v1h3v2h-2l-3-1-3-1h-5t-4-1q-5-1-5 0t-1 1h-1t-2-2-5-2h-5l-1 1q-1 1-1 1h-1q-2 0-4 0t-2 1-2 1q-1 0-8 1l-8 1-2 1-1 1h-1v2h2l1 2q1 2 1 4t1 2 2 2q2 1 2 4 1 4-1 7t-20 8q-17 5-18 7 0 2-2 10t-3 8q-1 1-1 4v6l1 2 1 1v1h-2v-1h-1v-1h-2v-1h-1v-2h-1v-1h-1t-2-1q-1-1-4-9-4-8-5-8t-1-1-3-1h-3v-2h1l1-1q1 0 3-3 3-3 3-4v-8t1-2l1-2v-3h-1v-1h-9q-4 0-6 0t-3 0q-1-1 0-2 1-2-1-4-1-2-4-2h-2q-1 0-1 1h-1q-2 1-14 5t-24 8l-12 4-2 1-1 1h-7q-4 0-6 1-1 1-3 2l-2 2h-6q-5-1-6-1t-7-6l-5-6v-10q1-10 1-12 0-1 6-6l6-6 5-4q5-4 5-4h1q1 0 1 0v-1l5-2q5-1 13-10 8-8 8-10v-3q0-1 4-7l3-6q1 0 1-1 1 0 1-1h1v-1h1v-1h1v-1h1l3-4q3-4 7-4t20 6 71 28 56 23z" fill="#e7dad9" stroke="#e7dad9"/>
  <path d="m20 38h1l2 4q3 5 5 7t2 5v4q-1 0-2 1l-1 1h-2v1h-1v1h-2v1h-1v1h-9v-1l-1-1-1-1v-3q0-3 0-10v-8l1-4q0-4 3-2 4 2 4 3 1 1 2 1z" fill="#bb6356" stroke="#bb6356"/>
  <path d="m708 466v-2l2 3q2 3 5 1 3 0 4 0t1 2 0 3h1q0 1-2 1t-3 4q-2 4-3 5l-1 1h-6q-2 0-3 2-1 0-8 0l-7-1h-1v-1h-1l-2-1h-3v-1h1v-1l1-3v-2h3l6-3q6-3 6-3h5q5-1 5-2 0 0 0-2z" fill="#683f3e" stroke="#683f3e"/>
  <path d="m426 738l-1-2h1q2 0 2 1h1v1h1l1 1h1v2q0 2 1 2v1h-1v1h-1v1h-3q-2 0-5-1t-3-2v-1h1q1 0 4 0h4v-1h-1v-1q0-1-2-2z" fill="#58554f" stroke="#58554f"/>
  <path d="m114 111h4v1t-1 1-7 2l-7 1t-3-1h-3q0-1 2-1h2l5-2q4 0 8-1z" fill="#a19a9b" stroke="#a19a9b"/>
  <path d="m235 379h1l1 9q1 9 4 10t3 10q2 8 2 10 2 1 2 9t0 9 0 1h1l1 3q0 2 2 4 1 0 2 1v4q0 4 1 9l1 5v2h1v3l-1 2q-2 2-2 2v1l-3 4q-3 4-3 5 0 0-2 2-2 3-7 12-6 10-7 9-2-1-2 0-1 1-2 1-2 0-2 1t-1 1-7-2-6-4-4-2q-4-1-3-2 1 0 0-1-1 0-1-1-1-2-6-2-4 0-7-4l-3-4v2q0 3-1 2-1-2-1-1v1l-1-2-1-2v-2l-1 2-1 1v5h-1l-1 1-1 1h-1v-6q0-6 1-38l1-32h1v-1q1 0 3-5l2-4v-2h1t2-2l2-1h1q1-1 2-1h2l1-1q1-1 6-3t11-7l5-4h1q0-1 0-1l7-3q7-3 8-4z" fill="#d4c3c2" stroke="#d4c3c2"/>
  <path d="m87 549l4-1h2q2 0 2 1l-5 4q-4 4-6 5-2 2-10 4-7 2-8 2 0 0-1 0v1q-1 0-1 1h-10v-4h1l1-1h1v-1l1-1v-1h3l3-1q2-1 10-3 7-2 8-3 2-1 5-2z" fill="#e9bb71" stroke="#e9bb71"/>
  <path d="m312 739l1-1q1 0 1-2 0-1-1-1-1-1 1-2t2 0v2q0 1 0 1l1 1h1v2q0 1 0 3 0 0 0 2 0 0 1 2t-1 2h-2v1q1 1 3 1t3 0h2v1l1 1v1h-1l-1-1h-1v2h1l-4 3q-3 2-3 3t0 2v1h-1v1h1v2h-1l1 1 2 1h-64v-1h-1v-1h-1v-2h-1l-1 1h-1v-1l1-1v-1l1-2q0-1 2-2 2 0 2-1 1-1 2-1 1-1 1-2 0-2-1-2t-1-1 1-1 0-1q-1 0-3-4-1-3-1-6l-1-3v-1h-1v-1h3l1 1q1 0 1-1v-1q1-1 1-1h6q5 1 6 0 1 0 3 0 1 2 2 1 2 0 2-1t7 0q7 0 7 1t4 1 5 1 2 3q0 1 2 0 1 0 2-2t2-2 1 2q0 1 2 1 1 0 1 1t1 1z" fill="#bd8045" stroke="#bd8045"/>
  <path d="m664 384h1v1q1 1 0 1h-1t0 1q-1 1-7 4t-11 4h-6q0-1 2-1h2v-1h-1v-1h2v-2l6-2q7-1 9-2 3 0 4-1 0-1 0-1z" fill="#e6946b" stroke="#e6946b"/>
  <path d="m355 84v-1h1q1 1 2 1h1v1l1 1v9q0 3-2 5l-2 2v-2q0-2 1-4v-4l-1-3v-2q0-2-1-3z" fill="#aaa09d" stroke="#aaa09d"/>
  <path d="m987 629h1l-1 2q-1 1 0 1h4l1 1 1 1h3q1 0 2 0h1v1q0 1-4 3l-4 2h-1t0 1h-2l-2-1t1-2-1-2h-2t-1-1h-1l2-3q2-2 3-3z" fill="#9b918f" stroke="#9b918f"/>
  <path d="m326 288h8v1h-1v1h-1v1q0 1-6 3l-7 4h-2l-1 1-1 1h-1q-1 0-1 1h-1q-1 1-68 31l-67 31h-1q-1 1-1 1h-2q-1 0-1 0v1h-1q-1 0-1 1h-2v1l-10 4q-10 5-10 5h-1q-1 0-1 0v1l-2 1q-3 2-4 2h-1l-2 2q-1 2-3 25t-2 31v7l-1 1v1h-1v1h-2v-1h-1v1h-1q-2 0-10-3-7-3-8-6 0-3-9-2t-15 3l-7 4h-1l-1 1-1 1h-2v1h-1v1h-1v1l-4 2q-4 1-5 2l-1 1h-3v1h-1v1h-1v1h-1v1l-2 1q-3 1-4 2l-1 1-9 4q-8 4-8 4h-1l-9 4q-8 4-8 5l-4 1q-4 2-4 2l-1 1-1 1v1l1 1h-3v-17h1q1-1 9-9l8-8q1 0 1-1h1q0-1 0-1 1 0 2-2l2-1q1-1 1-1h3l1-1 1-1h1q1 0 5-4t7-8q3-5 1-17t-9-12l-7 1-4 1q-4 1-4 2l-6 2q-6 1-8 2l-1 1h-3l-1 1h-1v-11h1l1-1q1-1 16-7l16-6h4l2-1q2-1 18-6l16-6q1-1 1-1h2l9-3q9-3 20-4 10-1 64-21 53-18 95-34t49-20q8-2 8-3h2q1-1 2-1z" fill="#2f3433" stroke="#2f3433"/>
  <path d="m212 550h1l3 1h2v-2h-1v-1h2v-1q1 0 1-3 2-4 2-5t2-5v-5h1v-1h1v1l1 2q1 2 1 2v1-4t1-1q1 0 3-5l2-4v-1h1v-1h1v-2h1l1-1h1v1h-1v2h-1v1h-1v6q0 4 0 11v6h1v1h1v2q1 1 2 2v4q0 4 2 6t2 4v7q1 5 3 6 2 2 3 2v2q0 2 2 4 2 3 2 4t1 1 3 3q3 2 4 3 0 1 0 1h1l2 2q2 2 3 2h1l4 2q4 1 4 2t5 1h6l5 1q5 2 5 3t7 1q7 1 7 1 0-1 2-1h4v2h-4v1h1v1h1l1 1 1 1h8q9 2 10 1h2l4 4q3 3 5 5 3 1 3 4 2 3 2 18 0 14 0 16v3l1 1v2h-3v1h-2v-1h-2q-3 0-17-8l-14-6-1-1-1-1h-2t-33-18l-34-17q0-1-14-7l-14-7-1 1q-1 0-3 1h-3q-1-1-16-8l-15-8v-1t-1 0q-1-1-1-3t0-13v-21q0-9 1-21l1-11-1-3v-3l1-1q2-1 4 5 3 5 4 5 2 0 2 4 0 5 2 6 3 0 1 2t3 4q4 0 3 1t5 1q6 1 6 2 0 2 0 4 1 2 2 2t1 1 1 1z" fill="#b7a8a8" stroke="#b7a8a8"/>
  <path d="m846 302l-2-5h2q0 1 0 1h1l87 33q86 33 88 34h2v18q-1 1-4 4l-4 3q-1 0-1 1h-1q0 1 0 1-1 0-1 1h-3q-2 1-12-1l-10-1h-1q-1-1-38-15l-37-14t-1-1h-2q-1-1-25-10l-24-10v-7q0-1-2-9l-1-8v-3q-1-3-1-3v-1h-1l-1-1q-1-1-4-1-2-2-4-6z" fill="#50504a" stroke="#50504a"/>
  <path d="m454 580l4-1 4 1q3 2 4 4 2 2 5 2t3 0v2h-1v1h-1v1l-1 1v1h-3q-2 0-6 1-3 1-4 1v1h-1v1h-8l3-1 2-1h1v-1h1v-3h-1t-3-2q-2-2-2-5t4-3z" fill="#a5876b" stroke="#a5876b"/>
  <path d="m433 434l5-2h2l2 1q3 1 6 1h2v1l1 2v2h-5q-5 1-6 1h-2l-1 1h-1q-1-1-3-1t-3-2q-2-2 3-4z" fill="#efc67b" stroke="#efc67b"/>
  <path d="m880 698v-3h2v13h2v-2h1v1h1v1l1-1v-1q1 0 1 1v1h4q4 0 4-1 1-1 2-1 0 1 1 2l1 1q0-1 2-1 2-2 2-3v-2 1q1 2 2 1 2 0 2 1t1 0q1 0 2-1 0-1 1-1 2 0 3 2t7 2q5 0 5 0l1 1q0 1-1 1h-1q-1 0-1 1h-1q-1 1-4 2-3 2-3 3t-2 2q-3 1-18 11l-15 11h-2v1h-1v1h-1v1h-1v1h-2v-2h2v-1h1v-1l1-1q1-1 1-2t-1-1-3-6q-3-6-8-7h-5v-1h3q2-2 2-2l1-1v-1h-3q-1 0-4-1l-4-1h1v-1h1v-1h1v-1h1v-8h2v1q1 2 6 2h4v-7l1-1 1-2v4l1 3v3h2v-4l1-4v-2z" fill="#4e4b45" stroke="#4e4b45"/>
  <path d="m552 243l8 3q7 4 7 4 1 0 1 0v1h-1q-1-1-2-1h-3q-2 0-6-2l-5-2v-2q1-1 1-1z" fill="#c5b8b8" stroke="#c5b8b8"/>
  <path d="m826 353v-1h10l6 1q5 1 6 1h3l12 4q12 2 23 6 11 2 13 3t5 1h3l3 1h4v1l5 2q5 2 7 4 3 2 8 5t12 11q6 9 14 21 8 13 8 13l1 1 1 1v2h-1v1h-1v3h-6q-2 0-11-2-9-4-13-5l-4-2v-1t-1 0-1-1l-1-1h-3l-4-1q-5-1-9-3l-4-2h-2v-1h-1v-2h-2v-2h1l1 1h1t1-1l1-1h6v-1l-1-1v-1h-1v-1h-2v-1h-1v-1h-1q-1 0-13-8l-11-8h-1q0-1-6-6-6-4-26-15l-20-11h-1q-1 0-3-1l-3-1q-1-1-1-1z" fill="#ebd0b7" stroke="#ebd0b7"/>
  <path d="m758 361h5v1q0 1 2 2 2 2 3 1 0-1 1 1t3 2q3 0 4-1h1v1q-1 1-4 3-3 3-8 10l-5 7-1 1v1h-1v2l-2 2q0 3-1 6l-1 3v4h-1v-3q0-2-1-2t-1-2v-1h-4q-4-1-13-1h-11v1h-1v-1h-1v-1h1q1-1 1-5-1-5-7-9l-6-5h-2v1l-1-1v-2h2v-1l1-1v-1l1-1v-1h1l1-1h1l3 1q3 1 8 1t15-3 11-6 3-3 4 1z" fill="#cb9f76" stroke="#cb9f76"/>
  <path d="m210 629h1v1q1 2 1 2v1h-1q-1-1-6-4l-5-3h3q3 0 5 2 2 0 2 1z" fill="#d6a66c" stroke="#d6a66c"/>
  <path d="m782 467v5h1l10 10q11 9 14 13 3 5 3 5h1v1l1 1v1l1 1 1 1 2 5q2 5 2 8 1 2 2 3t1 1l-3 25q-2 25-3 27v3h-1v1h-4l-2-1h-1v-1q-1-1-3-3t-2-2q-2 0-7-5-5-4-8-5-2-1-2-1-1 1-2 2-2 0-3-1 0-2-2-2-3 1-4-2-2-2-4-3-2 0-2-3-1-2-2-2-1-1 0-2 0-2-1-3t-1-3-1-2-1-1 1-1q1-1-1-3l-1-2h-1v-3h1v1h2q3 0 3 0h2-1v-1h-1v-1l-1-1q-1-1-1-3-2-1-2-4 0-2 2-7t-1-9l-3-4v-1l-1-1-1-2v-1h-1v-1h-1v-1t-1-1v-2h2v-9h1l1 1h2q2 2 7 2t7-2q1-2 4-8 3-7 3-7z" fill="#b83f34" stroke="#b83f34"/>
  <path d="m102 37h2l-2 3q-1 2-2 2 0 1-1 2 0 0 1 1 2 1 2 11t-1 12-3 2q-1 0-2 2 0 2 1 2t-1 2-3 2v1h-1v1h-2v4h4v-1h1v1h3l-2 1-2 1h-2l-2 1q-1 1-8 3-6 2-13 7l-7 5h-1v1h-1v1h-1v1h-1v1t-1 0v1q-1 0-1 1l-2 2q-3 2-4 2h-4q-2 0-3 1-1 0-3 3-1 2-5 0l-4-3v-1q-1 0-1 0-1 0-2-2l-1-2q-1-1-1-1v-1t-1-6v-6h1v-1h1v-1h1v-1l1-1q1-1 3-4 3-4 6-11 2-7 8-13l5-6h1t0-1l2-1q1 0 2-1 0 0 1-1h2l1-1 2-1 20-6q19-6 20-7z" fill="#5a5a5a" stroke="#5a5a5a"/>
  <path d="m506 235l-3-3h4l3 1 3 1h2v-2h1l6 3q7 3 8 4l2 1h2q1 0 2 1h2l3 1q3 2 4 2h1l2 1 1 1h2l5 2q4 2 6 2h2l2 3q3 3 2 4l-1 1h-1l2 1q2 1 0 1t-2 1h-4l-4 1h-4v1l1 1 1 1v2l7 11q7 11 10 13 3 3 3 3h1l3 4q2 4 4 5h1v1h-2v1h-1v7l1 1v1h-2v-1l-1-1v-1l-1-1q-1-1-2-4-1-2-3-2-2-1-2-2-1-2-2 0 0 2-8-4-8-5-8-6t-3-2q-3-2-3-2-2 0-6-3-5-3-8-5-4-2-4-4t-2-2l-1-1h-1q0-1-1-3-1-3 0-4l2-2h1v-3h-1v-1h-2v1h-1v1h-1t-2 3l-1 2h-1v-1h-1v-1h-1v-1h-1v-1h-2v-1t0-2 1-4l1-3h-1l-1 1h-1l-1 1q-1 1-2 2 0 1-1 1h-1v-1h-1v-1h-1l-1-1h-1v-2h1v-1h1l2-2q4-3 4-4v-1l1-2v-2h-4q-2-1-1-2v-1t-2-3z" fill="#ead2bc" stroke="#ead2bc"/>
  <path d="m641 586h2l2 6q1 7 4 10 3 4 3 5v1h-1q-1 0-5-5-4-4-4-9-1-6-2-6l-2-1h2l1-1z" fill="#d0835d" stroke="#d0835d"/>
  <path d="m337 322h-1v1h-1v1h-2v1h1v3l1 1 1 1v1h1v1h1v1h-1v1h1v2h1v1l1 1v1h1v1h1v2q0 1-2 0-2 0-2 0v2q0 1 1 2v1h-1q-1-1-2-1l-2-2h-1l-1 1h-1v1q1 1 1 2v1h-2v-1q0-1-3-3-3-3-4-1-1 0-5 2-3 1-3 2 1 1-4 0-4 0-4 1 1 1-5 2t-8 1q-2 2-9 3t-7 2-1 1q-1 1-5 2-4 2-4 3t-3 2-6 1-3 1-4 1h-6v1l-1 1-1 1v1h-1v-1h-1v-2h1v-1h1v-1l1-1 1-1 3-5q4-4 15-11t29-13 19-12q2-5 13-4 12 2 12 2z" fill="#eec39f" stroke="#eec39f"/>
  <path d="m1023 602l1-1v18h-2q-1 1-12 8l-11 7h-1t0 1h-2l-2-1h-1l-1-1-1-1h-3l-1 1h-1v-2l1-1h1v-4h1l10-8q10-6 17-11 6-5 7-5z" fill="#d1c2c1" stroke="#d1c2c1"/>
  <path d="m150 596l-2-3 17 8q17 9 17 9v1q1 1 0 1t-1 1v1h-1t-3-1l-3-1q-1 0-11-6l-9-5h-1v-1q-1 0-1 0v-1q0-1-2-3z" fill="#af9177" stroke="#af9177"/>
  <path d="m580 298l-3-4 49 1q50 1 50 1v1q0 1-1 3-1 1-39 2l-39 2h-7l-2-1h-4q-2-1-4-5z" fill="#b29d8f" stroke="#b29d8f"/>
  <path d="m45 247l1-1 1 9 1 9v7l-1 1q-1 0-2 18-1 17-1 19t1 6v5q-1 0-1 10v19l-1 7q-1 8-3 10t-3 2h-1l-2 1-1 1-5 1q-4 1-5 2h-3q-2-1-10-3-9-2-10-4v-94h1v-1h1v-1h2l1-1 1-1h1q1 0 4-2l3-2q1 0 1-1h1q2-1 6-3t11-5l7-3q1 0 1-1h1q0-1 0-1 1 0 1-1h1q0-1 1-2z" fill="#313635" stroke="#313635"/>
  <path d="m175 568v-8h1v12q0 11 0 13t1 2 1 1v1h-1q-1-1-10-5l-9-5 2-2q1-1 5 0t6 1h3v-1q0-1 1-9z" fill="#caa88c" stroke="#caa88c"/>
  <path d="m17 250l9-6 3 1q3 1 3 1h-2q-3 1-5 5-2 5-3 5-2 1-2 1v1h-1v1h-1l-1 1q-1 2-2 2v1q-1 0-1 1l-3 2q-3 2-4 2h-1l-1 1-1 1h-2v1h-1v1h-1v-12h5v-1h1v-1h1q1 0 1-1 0 0 9-7z" fill="#cdb8ac" stroke="#cdb8ac"/>
  <path d="m253 98t1 1l3 4q3 4 3 6v4h-1v1h-1v-5h-1v-1h-1v-1q0-1-2-2-1-1-8-1h-6l-1-1h-1v-2h-1v-1t1-2 2-4v-3l-1-1q0-1-5-2h-4q0-1 1-2h5q5 0 10 4 6 3 6 6 0 2 1 2z" fill="#7f7f83" stroke="#7f7f83"/>
  <path d="m720 406v-1h1q1 1 2 1h1v3l1 1q1 1 1 1l2 3q2 4 4 8 2 3 2 7t0 4q0 1 0 1l-1 2-1 2v4h-1l-1 1-1 1h-1v-1h-1v-1h-1v-4h-1v-1h-1q0-1-1-4t-2-14l-1-11v-2z" fill="#dda178" stroke="#dda178"/>
  <path d="m126 448h1v-1h1v1h2v-1h1v9q-1 8-1 14v5l-1 1v1h-3q-3-1-3-1-1 0-11-4l-10-3v-1t-1 0-1-1l-1-1q-1 0-3-3t-4-4-6-5q-4-2-10-4l-6-1v-1h1v-1h1v-1h2l1-1 1-1h1l7-4q6-2 15-3t9 2q1 3 8 6 8 3 10 3z" fill="#484d4f" stroke="#484d4f"/>
  <path d="m245 500l1-3v9q-1 10-2 10h-1t-1-1q-1 0-2-2v-4q0-2 1-4t2-2 2-3z" fill="#a09391" stroke="#a09391"/>
  <path d="m483 416h3l1 2q1 3 3 3 2 1 2 1h-2q-1 0-6 3l-4 3h-1l-1 1v1h-1q-1 0-1-1t-1-2 0-1q1-1-1-2h-1l-3-1h-4v-1h7l5-1q4-1 4-3t1-2z" fill="#e0c090" stroke="#e0c090"/>
  <path d="m144 378l3-2v1q0 1-2 2t-1 2q1 0 0 7 0 8-1 38-1 29-2 52-1 24-1 38v34q0 18 1 18t1 1v1h-2t0-1h-4q-3 0-4 1 0 2-1 2t-1 1-1 1h-1v1h-1v1h-1v1h-1v1h-2v1h-1v-5q0-4 0-16t-1-14-3-2h-2v-2h1l1-1q1-1 4-1 2-1 3-7l1-6v-3q0-4 1-6v-7q1-6 1-16l1-10v-1q1 0 1-4v-8q0-6 1-14v-10l1-1v-7q0-8 2-31t3-25l2-2h1q1 0 4-2z" fill="#cdbab1" stroke="#cdbab1"/>
  <path d="m920 535h5v1h-2l-1 1-1 1h-1v1h-1v1h-2l-1 1q-1 1-6 1-4 2-10 2-5 0-14 1-8 1-12 2-3 1-4-1 0-1-7-2-7 0-12-2t-9-4q-4 0-9-5t-8-8l-4-3t-1-1-2-3q0-3-2-8l-2-5-1-1-1-1v-1l-1-1v-1h1l1 1 1 1h4q4 0 6-3 2-2 11 1 9 2 10 3t8 4 15 5q7 2 12 4 6 2 10 5 5 3 9 6t7 5q2 2 6 2t8 1z" fill="#9d7659" stroke="#9d7659"/>
  <path d="m700 259h1l1 1q2 0 0 4t-3 4v-1l1-1v-1q0-1 0-2-1-1-4-1h-3l3-1q2-1 4-2z" fill="#af928b" stroke="#af928b"/>
  <path d="m24 35l2-2 2 1q2 1 2 4 0 2 1 4l1 1v4h1v6l-1 2q-1 1-2 2v-3q0-3-2-5t-5-7l-2-4h1t2-3z" fill="#9c818c" stroke="#9c818c"/>
  <path d="m614 342v3q0 3-1 3 0 0-1 1l-1 1h-1q-1 2 0 2t3 4q2 5 4 5t2 1 4 4q5 3 6 6t2 3 1 5q0 6 4 8 5 2 5 1h1v1h3v2h-2v1h1v1h-2q-2 0-2 1h-4q-4 1-6 5l-2 4-1 1-1 1v-2q0-1 0-2 0 0-5-1t-5-3q0-1-5-1t-6-1q-1-2-1-2-2 0-9 5-8 5-11 6t-3 2q1 1-2 0l-2-1v-1h-1v1l-1 2-1 2v-1q0-1-2-4-1-3-4-5l-4-1h1q1 0 2-3t-2-4q-2 0-1-1v-1t3-8l2-9 6-8q6-8 14-9 9-1 13-4t5-5 3-3q3-2 4-2z" fill="#ec9f6f" stroke="#ec9f6f"/>
  <path d="m494 248l2 1q2 1 2 2v1q-1 0 0 1t1 1h-1t-2 0h-3l-4 1h-4v1l1 1v1h-1q-1 0-2-2l-1-1v-1h1l1-1 1-1 4-2q4-2 5-2z" fill="#b9a660" stroke="#b9a660"/>
  <path d="m679 348l3 2q4 2 7 4t5 4q1 3 0 3l-1 1h-3q-2 0-4-2l-3-1v-2q-1-2-3-5l-2-3t1-1z" fill="#eac2a7" stroke="#eac2a7"/>
  <path d="m202 70q-1 0-11 2-10 0-13 2l-3 2h-2t0-1h1v-3l2-1q1-1 1-1l5-1q4-1 12 0t8 1z" fill="#666c70" stroke="#666c70"/>
  <path d="m236 100h1v1h1v2h1l1 1h6q7 0 8 1 2 1 2 2v1h1v1h1v5h1v2h6v1l-1 1v2t-4 0h-4t-2-2-8-3l-5-1q-1-1-1-1h-1q-1-1-3-1h-1l-1-1v-5q0-2 0-4 1-2 2-2z" fill="#ada19d" stroke="#ada19d"/>
  <path d="m346 272h3q1 0 1 1t-1 1q-1 1-3 3-1 3-8 6l-7 3-1 1-2 1h-2q-1 0-2 1h-6v-2h1v-1h1v-1h-1v-1h3v-1h1v-1h-2v-1q1-1 1-2v-1h3l10-3q10-3 11-3z" fill="#5a5956" stroke="#5a5956"/>
  <path d="m55 458h7q5 0 10 4 6 4 7 4 1 2 1 2h1v1h1v1l1 2v3h-1l-1-1h-2l-1-1-2-1h-2q-1 0-6-4-6-2-13-3h-7v-1l1-1v-1h-2l1-1q1-1 4-2l2-1h1z" fill="#a79d9e" stroke="#a79d9e"/>
  <path d="m889 699v-1h6v1h1v1l1 2q1 3 1 4-1 0-2 1 0 1-4 1h-4v-1q0-1-1-1v-2q1-3 1-4v-1h1z" fill="#b1b0af" stroke="#b1b0af"/>
  <path d="m448 421h1l6 1q6 2 9 1h6l3 1h1q2 1 1 2-1 0 1 1 3 1 3 1l-1 1v1q0 1-1 1l-1 1v2l2 2q2 2 2 3t4 3q4 3 4 8 2 4 0 5 0 1 2 2 3 1 6 2 2 1 2 2 1 1 2 2v1q-1 2-1 2-1 1-1 1-1-1-1-1t-1-3v-2h-1v-1h-3l1 2q1 2 1 2v1h-2l-2 1h-2q-1 0-1 0-1 0 0-1t-6-2l-6-1h-1v5q0 3-1 3t-1 4q-1 4-1 4h1v2h-4q-1 0-4-2-3 0-8-4-5-2-11-4t-7-3q0-1-2 1-1 2-2 1 0-1-2-1t-2-2q0-1-2-1-1 1-3 3l-2 2v1h-1v5h-2v-5h1v-1h1v-2l1-5q1-5 1-6t4-2q3-1 4-3t4-3l4-1h2v-3h-1q0-1 0-1-1 0-2 0h-2v-1l-1-1v-1h1l1-1h2q1 0 6-1h5v-2l-1-2v-1h-2q-3 0-6-1l-2-1h-2l2-1 2-1h2v-1h1v-1q1 0 1-1 2-1 1-2t0-1q1-1 0-2-1 0 1-1z" fill="#ebceb3" stroke="#ebceb3"/>
  <path d="m205 25l29 2q28 3 31 3t3 1h1q0 1 2 2 1 2 0 3-1 0-7 2-5 2-9 8l-5 6v10l2 4q1 4 6 8 6 2 8 3h1v1h1v2l2 2q3 2 1 4-3 1-3 1v1h1v1h1v1l1 1v1h2l1 1h2v1h-20l-1 1q-1 1-1 2v2h-2v-3q0-3-6-6-5-4-10-4h-6q-1 0-3-1t-3 1q-2 0-3 0-1-1-3-2h-2l-1-1h-1v-1h-1v-1h6v-2l-1-2v-1h-1v-1h-1v-1t-2-1-7-2l-5-1t-8-1-12 0l-5 1h-8l-5 1q-6 1-18 1h-12v-3q0-1 1-1t1-3 1-7q1-5 0-5t-1-1q0-2 0-4 0-3-1-3t0-5q1-6 1-8v-1l22-2q21-3 34-3h13v-1z" fill="#4c5052" stroke="#4c5052"/>
  <path d="m551 676h1l-2 4q-1 4-3 8t0 4 2 1q-1 2-1 3v2q1 0 1 2v1q-1 0-1 1 0 0-1 0v1q0 1-6 5-6 6-13 8l-7 2h-5q-2 0-8 1-5 1-10 0l-4-1h-3v1h-1v-1h-2v-4h1q1 0 3-1l2-1h2l-2-1q-2 0-2-1t-2-1l-1-1h1l6-1q5-1 4-1-2 0-1-1l1-1h5l1-1 2-1 2-1q3-1 9-3t13-4q7-3 10-7 4-3 5-5 1-1 2-3 1-3 2-3z" fill="#5c5b5a" stroke="#5c5b5a"/>
  <path d="m806 723l23-1h8l13 1h18q5 1 8 7 2 6 3 6t1 1-1 2l-1 1v1h-1v1h-1t0 1q-1 1-1 1h-1q-1 0-10 4l-9 3h-14q-14 1-17 1t-12 6l-9 4v1h-1v1h-1l-1 1-1 1h-2v2h-353v-1l-1-1v-1h-1l-1-1h-2l-1-1q-1-1-13-7l-12-6v-1h1v-1h-1v-1h-1v-1h-1l1-1h1v-3l1-2h2l1 1q1 1 2 1h1t0 1h1l3 2q2 1 4 1h3v-1h1v-1h1v-1q-1 0-1-2v-13h29q21 0 33-1h16l2-1h34q35 0 44-1h31l22-1h69q68 0 70-1h24z" fill="#262a28" stroke="#262a28"/>
  <path d="m255 95l1-1h22l2 1q1 1 3 1h2l8 2q7 1 13 5 6 5 6 5h1t1 1q0 1 0 1h1l1 1v1h1v2h2v2h-2v-1h-1v1h-1l-1-1q-2-1-3-1h-1l-3-1h-5q-3-1-10-1h-8l-3 1h-6q-3 1-7 2l-3 1h-6v-3h1v-4q0-2-3-6l-3-4v-1t-1 0l1-1q0-1 1-2z" fill="#57585b" stroke="#57585b"/>
  <path d="m825 358h1l2 1q1 1 1 2h1v1h2q2 1 2 2 0 2 5 8 6 6 11 8 5 0 8 2 4 2 4 3t1 1 1 1l1 5q1 4-1 14 0 9-1 10v1h-1q-1 1-4 0-2-1-5-1t-5 0q-3 0-6 2-2 2-7 8-5 7-8 11-4 3-13 5-9 0-11 0t-7 0q-4 0-10-6-5-4-7-8-3-4-3-4-2 0-2-10t-2-14-7-4l-5-1v-2l-1-1v-3l1-1 5-7q5-7 7-9t3-2v-1q1 0 1-1 0 0 1 0v-1l10-7q10-6 16-8t13 2q8 4 9 4z" fill="#eed3bc" stroke="#eed3bc"/>
  <path d="m128 483h1l-1 10q0 10-1 16v6l-3 1q-2 2-2 3t-6 3q-7 3-8 5 0 1-1 2h-1l-7 3q-7 3-7 4t-1 1l-5 1q-4 1-5 2-1 2-3 3t-3 3q0 1-1 1-2 1-2 1h-1l-8 1q-8 1-10 2t-3 3q-2 2-4 3t-4 2l-3 1h-1v1l1 1v1h-1l-2 1h-1v1h-1t-1 1l-9 1q-8 1-11 5-3 2-7 3h-4v2h-1v-1h-1v-34h1l1-1 1-1h1q2 0 50-23l48-23h2l1-1 1-1h1q1 0 11-5 9-5 10-4z" fill="#2f2f27" stroke="#2f2f27"/>
  <path d="m516 270h2q2 1 2 2v2q0 1-2 2v1h-1v1h-5v-5l1-1q2-2 3-2z" fill="#7b8449" stroke="#7b8449"/>
  <path d="m85 140h12l1-1h1l11 1q10 0 22 0 11 0 13 0h2l1 1h1v1q1 0 1 0v1l1 1q1 1 1 4v10h-3q-3 0-9 1h-8q-4-1-7-1h-3l-2-1-3-1h-3q-3 0-19-4l-16-4-1-1v-1h-1v-1h-1v-3h-3v-2h12z" fill="#dbcecc" stroke="#dbcecc"/>
  <path d="m28 371l5-1h6v1q-1 1-1 1v1t-1 1l-15 6q-15 6-16 6h-1l-1 1-2 1h-1l-1 1v-11h12l2-1q1-1 4-2l4-2h1q1-1 5-2z" fill="#a19899" stroke="#a19899"/>
  <path d="m24 108l2-1q0 1 0 1h1l1 2q1 2 2 2 0 0 0 1h1l3 4q4 5 5 5h1l2 2q2 0 3 1h1q0 1 0 1h1t1 1l1 1q1 0 2 1l1 1 8 3q7 3 10 4h4l2 1h23v1h-1l-1 1h-22v1l1 1v3h1v1h2v2h-2l-2-1q-2-1-19-8l-18-8v-1t-6-4l-5-4q-1-1-4-4l-3-4h-1v-1h-1v-1h-2v-2h2v1h1v1h1l1 1q1 0 1-2t2-3z" fill="#ccb9b4" stroke="#ccb9b4"/>
  <path d="m923 660l-1 2q-1 0-2 2l-1 2h-1v1l-1 1v1h6q0 1-2 2-3 1-19 12t-16 17l-1 6h-1v2h-2v-13h-2v5l-1 4v4h-2v-3l-1-3v-4l-1 2-1 1v7h-4q-5 0-6-2v-1h-2v5t-5 4-13 6l-8 1h-10q-10-1-14-1h-5l-2-1-2-1h2v-2q1-1 1-2 0 0 1-2 2-3 1-3-1-1-2-8l-1-7v-1q1-1 1-6l1-5h1v-3l1-1 1-1 1-1q1-2 6-2t10 2q5 0 13 2 9 0 18 3 8 3 16 1 8 0 14-6t12-10q7-4 8-5h2v1h1l1-1 1-1h2q2-2 3-2h1v-1h1v-1h2q3-1 2 1 0 2-1 3zm-1-3q1 0 1 1v1h-2v-1q0-1 1-1zm-103 51l1-1-1-5q0-4 1-4 2 0 3 4 1 5 2 3t2-5q0-2 1-2 2 0 1 8-1 7-5 7-4-1-4-2-1-1-1-3z" fill="#958c8b" stroke="#958c8b"/>
  <path d="m116 263l4-6 1 11q1 10 1 12v1l-2 3q-1 2-16 10-16 8-17 8h-1v1h-2v1h-3v1h-1v1h-2v-2h1l1-1 1-1h1v-1h1v-1q1 0 2-4 1-3 0-3-1-1 0-2t3-5 3-4 1-1 6-4q7-3 10-5 4-2 8-9z" fill="#bdb1b4" stroke="#bdb1b4"/>
  <path d="m962 565l2 9q2 8 3 9v1l-1 2q0 3-1 3h-1q0-1-1-1t-3-6l-1-7h-1v-1h2q1-1 1-2l-1-2v-4q1 0 2-1z" fill="#898280" stroke="#898280"/>
  <path d="m86 538l5-1 3 2q2 1 2 2h1q0 1-1 1h-1v1l-3 1q-4 0-4 1t-5 2-6 1-3 0h-2t2-1q1 0 1-1 1-2 3-3t3-3q1-1 5-2z" fill="#926535" stroke="#926535"/>
  <path d="m827 356v-2l3 1q2 1 3 1h1l20 11q20 11 27 16 6 5 6 5v1q0 1 2 3 1 1 2 1v1h1l6 6q8 5 8 6 0 2 1 2v1h1v1h3l-1 1q-1 1-1 1h-1l-1-1h-1v2h2v2h1v1h2l4 2q4 2 9 3l4 1h3l1 1h2v2h-1l-1-1h-14q-7 0-10-2-3 0-9-5-7-5-9-5-3 0-6 4l-3 4h-1v4h-2v-8q0-1-1-6-1-4-2-6t-5-10q-4-7-5-7h-1v-1t-1 0-1-1-4-3q-3-2-8-2-5-2-11-8-5-6-5-8 0-1-2-2h-2v-1h-1q0-1-1-2l-2-1t0-1 1-1z" fill="#ddc18e" stroke="#ddc18e"/>
  <path d="m2 77l1-1h4l1 1h1v1l1 2 1 1h1l-1 7q-1 7-1 11t-2 6q-3 1-4 2l-1 1h-3v-30h1l1-1z" fill="#b09e8d" stroke="#b09e8d"/>
  <path d="m20 447l5-1v1q0 1-2 2t-3 1-1 0v1q-1 0-1 1h-2q-3 1-3 2v1h-3q-4 1-6 1h-4v-3h2l3-1h2q2 0 3-1 1 0 2-2 1-1 2-1t6-1z" fill="#aa9789" stroke="#aa9789"/>
  <path d="m313 682h1t0 1h1l1 1q2 2 3 2h1l2 2q2 1 3 2v2l-1 1-1-1h-2v-1h-1v-1h-2l-1-1q-1-1-9-4l-8-4v-1t-1 0q-1-1-1-1v-1t-1 0h-1t-2-2q-3 0-6-3l-3-2h3q3 1 12 4t10 3q2 0 2 2t1 2z" fill="#a3764e" stroke="#a3764e"/>
  <path d="m636 322l1-2 2 1q3 1 4 2t1 1q1 0 2-1v3t-1 1v1h-1l-2-1q-1-1-4-2-2-1-2-3z" fill="#e0b4b0" stroke="#e0b4b0"/>
  <path d="m548 397q0 1 0 1h1t1 1h6q5 1 6 0h2l4 1q3 2 4 5 2 3 2 4v1l1 3q1 3 3 5 2 1 2 4t-2 4q0 2 0 6t2 6q0 1-1 4-1 4-2 4t-3 1q-2 0-2 2t-4 3q-3 0-3 1t-1 1 0 8q0 8 0 9t-2 2-6 1h-3v1h-1q-1 0-2 2-1 3-9 3t-16 0-9-2q0-1-4-4t-6-7l-3-5h-1q-1 0-2 1l-2-1q-1 0-1 1 1 1 1 2v1h-2q-1 0-2-1v-1t-2-2q0-2-2-4t-2-3q2-1 0-5 0-5-4-8-4-2-4-3t-2-3l-2-2v-3l1-1h1v-1l1-1h1l4-3q5-3 6-3h2l21 4q21 4 23 4h2v1h1v-1h1v-3l1-1 1-2q0-1-1-4-1-2-3-2t-2-4 1-8l2-3 3-2q2-3 2-3h2q1 0 2-1zm-52 63v1h-1v-1h-1q-1 0 0-1 0-1 1-1 1 1 1 2z" fill="#e5ccc0" stroke="#e5ccc0"/>
  <path d="m925 710h1v1q0 1-2 3-2 1-2 4 0 4 3 5t2 3 1 3 4 1q2 1 3 4 1 2 0 4 0 2 2 2 1 0 2 2l1 1v3h-1t-3 0h-2v2h4q2 1 2 4t1 3 1 1q0 2 1 2t1 2 1 2h1v4l1 1v1h-92v-1l-1-1h-4v-2h1q1 0 2-2 1-1 0-2-1 0-1-2t2-3 2-3l-1-1 9-3q9-4 10-4h1q1 0 1 0v-1h1l1-1h1v-1h1v-1h2l15-11q15-10 18-11 2-1 2-2t3-3q4-3 5-3zm11 33q0-1 0-1 0 1 0 1z" fill="#b17844" stroke="#b17844"/>
  <path d="m208 309v1h2q2 2 4 2h2l-2 1-1 1h-1q-2 0-52 19l-49 19h-2l-1 1h-1v-2h1l1-1h1t1-2l1-2h-2l-1 1h-1v-2h1l1-1h-2q-1 0-4 2h-5v-1h-1v-1h-3v-1h1v-1h2l1-1 1-1 16-6q15-6 18-5 4 0 4 2 1 2 12-1 11-4 34-12 24-9 24-9z" fill="#4a4c4b" stroke="#4a4c4b"/>
  <path d="m52 245v-12l1 1q1 2 2 4t1 2 1 0l-1 7q0 7-1 10l-1 3v5h-1v-1l-1-2v-17z" fill="#b9adae" stroke="#b9adae"/>
  <path d="m935 537v-1l3 2q4 2 6 4t3 3 2 1 1 1h1v2q0 1 2 3 1 2 2 4 0 2 1 2 2 1 2 2t-1 0q-1 0-1 1t2 3q2 1 2 2v9h-2v-1h-1v-1h-1v-1h-1v-1h-1v-1h-2v-2q0-2 0-4t-3-4-4-4-1-4q-1-4-3-8-3-4-4-5-2-1-2-2z" fill="#5c5a55" stroke="#5c5a55"/>
  <path d="m50 566l4-3v3h8t2-1l2-1v1q-1 1-2 2-1 0-3 3-2 2-7 3-4 1-5 3t-7 5q-5 3-6 3-2 0-2 1t-3 2-3 1h-5l-1-1h-1v-1h2v-1h1v-2h1v-1h-2v-1h-1v-1h2v-1t2-1l2-1h1l1-1h1q1 0 4-2 3 0 7-3t8-5z" fill="#eeca84" stroke="#eeca84"/>
  <path d="m86 219l-6-5h1l9 6q10 6 10 6v1h-2q-1-1-4-1-2-2-8-7z" fill="#9d9696" stroke="#9d9696"/>
  <path d="m732 258h5v1l-1 1t-1 2l-1 1q-1 1-1 1h-1t-2 2l-1 1v-2q0-2-3-2l-2 1h-5v-1h1v-1h1l1-2q1 0 2-1h1v-1h2q2 0 5 0z" fill="#a6827a" stroke="#a6827a"/>
  <path d="m406 341h1v1h1l1 1 1 1h2l5 4q5 4 6 4v1h1v1h-6v1h-1v1h-1q-1 0-2 1 0 1 0-1-1-1-6 1-6 3-14 1-8 0-10-4l-3-3v-2q0-1 1-2v-3 1t-2 1l-2 1v1h-1v-1l1-1 1-1 1-1 3-4q3-4 4-2 2 2 5 0 4 0 8 1 5 1 6 2z" fill="#eb9d6e" stroke="#eb9d6e"/>
  <path d="m951 542h1v1l5 9q5 10 5 12v1q-1 1-2 1 0-1-2-2-2-2-2-4-1-2-1-4-1-2-2-4-2-2-2-3v-2q0-1 0-2-1-2 0-3z" fill="#928988" stroke="#928988"/>
  <path d="m525 261v-1h2v1h1v3h-1l-2 2q-1 1 0 4 1 2 1 3h1q0 1 0 1 1 0-2-1t-4 0l-1 1v-2q0-1-2-2h-1v-1l-1-1v-1t0-1v-1t-1-1v-1h1q1 0 1 1l1 1v1h1v1h1l1-2q2-3 2-3h1v-1h1z" fill="#9f9b50" stroke="#9f9b50"/>
  <path d="m675 477h1v1q-1 0-1 1l-1 3q-2 2 0 2t4 0h2v-1h4l2 1h1v1h1l7 1q7 0 8 0 1-2 3-2h3l1 2q2 1 2 6 0 4-1 6l-1 3v5h1v1h1v1h2l1-1h1l1 1v1h2v8q-1 8-3 11-2 2-2 4 0 1-1 2-1 0-2 10 0 10-1 10-2 1-7 7-5 7-8 9t-10 2q-7 2-9 2-2 1-7 4-5 2-5 2v1t-2 1h-1v-1q1-1 1-1 0-1-6-1h-6v-2h-1v-1h-2v-1h-1v-5t4-4q4-3 4-10 2-6-2-11t-8-5q-5 0-6-4 0-4-3-4-3 1-3 0 0-2-1-2h-1v-1h-1v-1h-1l4-1 3-1h1v-2h-5v1q-1 0-3 1l-2 1v-2q0-2-2-2-1 0 0-1 0-2 0-4v-3h-1v1h-1v-1l-1-1-1-1v2h-1v-1h-1v2h-2v5q0 3 0 7v5l-1 1v1h-2l-2-1h-2l-1-1v-1h-2v-1l-1-1q-1-2-3-8l-2-6 1-2 1-1v-5q0-2 0-6 0-3 1-5 1-1 5-1l4 1h2l3-1h1l1-1 1-1h2l2-2q3-2 4-3 0 0 1-1h1t0-1h1v-1l20-4q20-4 21-4 2 0 3-1z" fill="#ca342b" stroke="#ca342b"/>
  <path d="m654 622v-3l1 1q1 1 1 2v1h1l1 1h1v1h1v1h1v1h1v1h1l1 1 2 4q1 4-2 4h-4q0-1-5-4l-5-4h2l3-1h1v-1l-1-1-1-1v-3z" fill="#a47352" stroke="#a47352"/>
  <path d="m400 665h1v1q0 1-1 2 0 0 0 1 1 1-2 2t-3 2q-1 0-1 0v1l1 4q1 4 6 8t6 5q0 1 10 5t25 4q14 2 21 2 7 2 15 0 9 0 19 0h11l-2 1-1 1h-5l-1 1q-1 1 1 1 1 0-4 1l-6 1h-1l1 1q2 0 2 1t2 1l2 1h-2l-2 1q-2 1-3 1h-1v4h6l-1 1-1 1h-4q-4 0-26 1t-22 3l-1 2h-1v-2q0-2-5-4t-21-13q-16-10-17-13-1-2 1-4 2-1 0-3-2-1-3-3t-3-6l-2-4v-1l1-1 1-1v-1h3v-1h1v-1q0-1 2-2 3 0 4-1z" fill="#4b4a45" stroke="#4b4a45"/>
  <path d="m382 345v-1 3q-1 1-1 2h-1v2l-1 1v1h-1q-1 1-2 2-2 1-12 5l-10 4-2 1-3 1h-1v-3l1-1 1-1v-2h1v-1h1q2 0 4-1h2l1-1h1l2-1 1-1 7-2q6-4 6-4h2v-1l2-1q2-1 2-1z" fill="#775834" stroke="#775834"/>
  <path d="m850 327v-5l2 6q1 6 2 7 2 0 2 1t2 0q1 0 2-1v6q-1 1-4 4l-2 4h-1v1h-1v2h-1v1h-1v1h-2q-1 0-6-1l-6-1v-7h-1v-1h-1l-2 1q-1 1-5 1h-4l-1-1-1-1h-1v-3l1-1 1-1v-6l-1-1-1-1v-2h1v-1h9q5 0 9 1 3 1 4 1 0 0 3 1l2 1h2v-5z" fill="#ae7c52" stroke="#ae7c52"/>
  <path d="m536 567v-1h1q1 0 1 1t2 1q2 1 2 2 2 2 2 2v1t-1 1q-1 0-3 2-4 1-10 4-6 2-8 4t-10 3q-9 1-10 1l-2 2h-1v1h-1v2h-2v-2l1-1 1-2v-1h1v-1h-1v-1l2-3q2-3 3-4 2-1 4-3 2-3 5-3t10-2q6-2 7-2h6v-1h1z" fill="#856b52" stroke="#856b52"/>
  <path d="m271 259v-17q1 0 1 6v7l1 2 1 2v3q0 4 1 5l1 1v2h1v1h1l1 1q2 2 7 2h5t-5 2-5 3q1 1-1 2l-2 1h-2l-1 1h-1v-1h1v-1h1v-1h1l-1-1q-1-1-3-2-1-1-2-18z" fill="#5c5e5e" stroke="#5c5e5e"/>
  <path d="m274 259v-1h1l5 6q6 6 7 6t6 1h5v1h-2l-2 1-1 1h-7q-5 0-7-2l-1-1h-1v-1h-1v-2l-1-1q-1-1-1-5v-3z" fill="#b4a8ab" stroke="#b4a8ab"/>
  <path d="m2 20h1l1-1h2v1q0 1-1 2h-1v2q-2 2-1 6t0 6v1h-1q-1 0-1 1-1 1-1 1v-17l1-1v-1h1z" fill="#edc4c1" stroke="#edc4c1"/>
  <path d="m132 133l8 1h-18q-17 0-20-1h-10q-5-1-17-2l-12-1-1-1-2-1h-2v-1h2l10-1q10 0 24 0 14 2 22 4 9 2 16 3z" fill="#cbb89f" stroke="#cbb89f"/>
  <path d="m176 516l1-3v3l1 3-1 11q-1 12-1 21v9h-2v-1q0-1 0-21v-20t2-2z" fill="#daa065" stroke="#daa065"/>
  <path d="m122 110h5q3 0 5 0h2t0 1h1v1l1 2v2l1 2 1 1 3 2q3 1 5 2 3 1 4 1h1v1l1 1v3q0 3-1 3-1 1-2 1v1h-9l-8-1q-7-1-16-3-8-2-22-4-14 0-24 0l-10 1v-1h3l-1-1-2-1h-1l6-2q6-1 6-2t-1-1l-1-1h2l13 1q14 1 16-1 3-2 3-2l7-1q6-1 7-2t1-1v-1q1-1 2-1h2z" fill="#dcd0c8" stroke="#dcd0c8"/>
  <path d="m308 42h4l2 1q3 1 4 1 0 0 0 1h1l1 2q2 1 3 2l1 1 4 3q4 4 6 15 3 11 10 15 7 5 7 5h1v1h1v1h1v1l1 1 1 1v1h1v2q-1 2-1 4v3q0 1-2 3l-2 3q-1 1-6 5l-6 4v1h-1v1h-1l-1-1h-1v-1q0-2-1-3v-1q-1-1-1-1v-1t-6-6q-4-5-15-10l-10-4t-3-2l-2-2v-1l-1-1-1-1v-1l3-3q3-3 5-7 2-3 1-12t-3-14q-4-5-1-5 2-1 7-1z" fill="#5b5b5d" stroke="#5b5b5d"/>
  <path d="m750 248h1v-1h-1v-1h5l2 1 2 1h-3v1h-1v1h-1q-2 0-4 0h-2l-1 1-1 1h2l2 1 1 1h1v-1h1v1l6-1q6-1 11-1 5-2 5-1h-1q-1 1-2 2-2 2-1 3 1 0 1 2 1 2 0 2h-2q-1 0-1 1h-3q-3-1-5-1t-7 0l-4 1h-2q-1 1-4 1-4 0-6 2l-2 1v2h-2v-3h-1v-1q0-1 1-2 2-1 2-1l1-1v-1h-5q-3 0-5 0h-2v1h-1v-3l1-1 1-1h3l1-1q2 0 3-2 1-3 3-3 3-2 8-1 4 1 6 1z" fill="#e1c3b7" stroke="#e1c3b7"/>
  <path d="m315 266h10v1h1v1h-1l1 1v1h-1v1h-1v1h-1v1h-1v2h-2v2h1v1h1v1q0 1-1 2v1h2v1h-1v1h-3v1h-1q-1 1-4 1-2 0-2-1t-6-1h-12v-1h-1v-1h3v-2h2q1 0 4-2 3-1 3-2t-1-1q-1 1-1-2v-3h3q4-2 6-2h1l1-1 1-1z" fill="#6e6b6a" stroke="#6e6b6a"/>
  <path d="m363 712v-2l2 1q1 1 2 1v1l-3 3q-3 2-4 3h-1v2h-1q0-1 0-2t-1-4v-3h3q2 1 3 0z" fill="#8a7058" stroke="#8a7058"/>
  <path d="m221 142h1l-2 3q-2 3 0 4h1l-3 4q-4 3-5 4t1 2 2 1h-8v-1t1-1q1 0-1-1l-2-1-1-1-1-1h-1v1h-1v1h-1v1h-1v1h3v1h-6v-1l1-1v-2h-1v-1h1v-4l8-2q8 0 11-2t3-3 1-1z" fill="#b3b09c" stroke="#b3b09c"/>
  <path d="m523 723h30q30 1 33 1h8q5 0 5 1h-9q-9 1-44 1h-34l-2 1h-3v-1h-1l2-1 1-1h7q6-1 7-1z" fill="#816b53" stroke="#816b53"/>
  <path d="m746 288h1t1 1v1q0 2-1 3 0 1-5 1l-6 1h-4l-4-1h-1q-1 0-1-1l8-1q9-2 9-2l1-1q2-1 2-1z" fill="#ae9080" stroke="#ae9080"/>
  <path d="m518 230l10 3q9 3 10 4v1q0 2 0 2v1h-2q-1-1-2-1h-2l-2-1q-1-1-8-4l-6-3 1-1q1-1 1-1z" fill="#cdc0c0" stroke="#cdc0c0"/>
  <path d="m818 547l3-25 4 3q3 3 8 8t9 5q4 2 9 4t12 2q7 1 7 2 1 2 4 1 4-1 12-2 9-1 14-1 6 0 10-2 5 0 6-1l1-1h2v-1h1v-1h1l1-1 1-1h2v-1l3-1q3-2 4-2h2q0 1 1 2v2t1 1l4 7q4 6 4 8t1 4 4 4 3 4 0 4v2h2v1h1v1h1v1h1v1h1v1l-1 7q-1 7-2 10-1 4-8 15-8 11-9 11t-3 4q-3 5-3 6-2 1-2 1v1h-1v1h-1v1h-2q-1 0-5 3t-8 6q-3 3-17 9-13 6-17 7t-9 1q-5 2-14 0-9 0-12-2t-15-2q-12-2-15 0-2 2-4 12l-2 10-1 3v3l-1 5q0 5-1 6v9q0 7-1 7-1-1-4 1t-4 4q-2 3-8 4h-66q-59 0-66 1h-11v-1h-1v-1h-1v-1h-1v-1h-1v-1h-1l-1-1q-1-1-2-1t-1-1-2-1q-1 0-1-4 0-3-1-3t0-4q1-3 2-5 2-1 5-3 4-3 7-6 4-3 9-19 5-15 5-21l1-6 1 1q2 0 2 0v-1l9 2q9 1 11 3 3 2 8 2t20-2q14-2 24-6 10-5 12-8 2-4 3-4v-1h1l1 1q2 0 3 1v2h1v1h6v-1h1v-1l2-1q3-1 9-3 7-2 9-4t6-2q3 0 5-6 3-6 4-7 2-1 3-3 0-1 1-2 1 0 4-4t5-12l3-7v-3q1-2 3-27z" fill="#32302b" stroke="#32302b"/>
  <path d="m716 460q2 0 3 2t-2 2q-4 0-4-2t3-2z" fill="#a05150" stroke="#a05150"/>
  <path d="m216 121h1l3 2q2 1 4 2h1v1l12 1q12 1 14 2l2 1h1v1h1v1h1v1h1v1h1v4l-1 1-1 1v1h-1v1h-2l-1 1q-1 1-10 1-10 2-14 2l-3 2h-1q-2 0-2 1h-2q-2-1 0-3l1-3q1 0 1-1v-1h1v-1h1v-2q0-3-5-7l-5-4q0-1-2-2l-2-2 1-1q1-2 3-2 1 0 2 1z" fill="#c5ad8e" stroke="#c5ad8e"/>
  <path d="m952 543v2q-1 1-1 2h-1q0-1-1-1t-2-1-3-3q-2-3-5-4l-3-1v-1t-1 0v-2q-1-1-1-2h5q4 0 5 2t4 4q2 2 4 3 1 0 1 1-1 1-1 1z" fill="#847d7b" stroke="#847d7b"/>
  <path d="m959 686h1v1q0 1-4 3-3 2-3 3l-1 1v1h-1v1h-1t0 1q-1 1-1 1h-1t0 1v4q0 5 1 5h1v1h1q0 1-1 1-2 0-4-2l-1-2q-1-1-1-1v-1q0-1-1-1t-1-1q-1-2-4-2h-2v1h-1v-3h2l5-2q4-1 10-5 6-5 7-5z" fill="#ba9e80" stroke="#ba9e80"/>
  <path d="m349 710l1-1h2q2 1 3 1h1v1l1 1v3q1 3 1 4t0 2h1v2l1 5q1 5 2 6 2 1 2 3 1 3 2 5 1 4 4 5 2 1 3 3t0 3 1 5q1 4-1 4t-2 1l-1 1v3h1l1 1h-54l-2-1-1-1h1v-2h-1v-1h1v-1q0-1 0-2t3-3l4-3h-1v-1q0-1-3-2-2-1-3-2v-1h2q2 0 1-2t-1-2q0-2 0-2 0-2 0-3v-2h-1l-1-1t0-1v-1q1 0 2-1 2-1 2-2 1-1 2-3t2-2q2-1 1-2-1 0 0-1 1 0 1-2 1-1 6-1 4 0 4-3 0-2 1-1 1 0 2 0 1-1 4-2l3-2h2l1-2zm-25 42v-2 1l1 1v1h-1q-1 0 0-1z" fill="#aa7440" stroke="#aa7440"/>
  <path d="m856 317h1l1 8q2 8 2 9v1q-1 1-2 1-2 1-2 0t-2-1q-1-1-2-7l-2-6 2-2q1-2 2-2 2 0 2-1z" fill="#a57952" stroke="#a57952"/>
  <path d="m57 375l16-5h5v1h-1v1h-1v1t-1 1q-1 0-1 0v1l-16 6q-16 5-18 6l-2 1h-4v-1l1-1v-1h-1l-1-1h-1l1-1 1-1h2l2-1q1-1 2-1t17-5z" fill="#7a7778" stroke="#7a7778"/>
  <path d="m188 88h3l2 1 2 1h1v1h-4q-5 1-6 2-2 2-2 3 0 2-3 3l-3 1h-3v1h-1v-1h-1v-1l3-2q2-1 2-2h1v-1l3-2q4-4 6-4z" fill="#757c7b" stroke="#757c7b"/>
  <path d="m814 266l1-3 4 5q3 4 4 5 0 1 1 1t3 3q3 3 3 5v1q-1-1-2-2 0-1-1-1t-3 0-6-2l-4-3v-1h1v-1h1v-1h-1v-1q-1 0-1-1t0-4z" fill="#d9aa8b" stroke="#d9aa8b"/>
  <path d="m178 400l-1-2 3 2q4 2 7 0 3-1 3-1v1t1 2v1l-2 1q-2 2-2 2h-1v2l-2 4q-2 5-3 5v1h-1v-2q0-2-1-8-1-7-1-8z" fill="#b8a9a1" stroke="#b8a9a1"/>
  <path d="m716 264h3t-2 2-7 4l-6 3h-1q0-1 1-1h1l1-1q0-1-1-1-1-1 4-3 4-3 7-3z" fill="#9e827c" stroke="#9e827c"/>
  <path d="m738 285h2l2-1h1q1 0 1 2t-1 3v1t-9 2l-8 1h-2q-1-1-2-1h-1l-1-1-1-1q-1-2 6-4 6-2 9-1 2 1 4 0z" fill="#654a41" stroke="#654a41"/>
  <path d="m275 113h3v1q-1 0-7 3l-5 3h-1v-1h-1v-1l1-1v-1l3-1q4-1 7-2z" fill="#b99691" stroke="#b99691"/>
  <path d="m382 354l-1-3 3 3q2 4 10 4 8 2 14-1 5-2 6-1 0 2 0 1 1-1 2-1h1v-1h1v-1h6l6 6q6 6 6 7h2t2-3q2-2 3-2l1-1 1-1h1l1-1h1v2h-1l-1 1h-1v1h-1v1h-1v1h-1l-1 4q-1 4-2 5-1 0-1 10 0 11 1 12h-2v3h-1v1h-1q-1 0-2 2l-1 1v-4h-1q-1 0-1 1 0 2-1 1t-6-3q-5-1-5-2 0-2-3-5l-3-3-1-1h-1v-2h-1l-1-1h-1t-3-2q-2-1-2-2 0-2-1-2t-2-2-6-4q-5-1-5-3-1-2 0-2 2 0 2-1t-4-3l-4-3v-1q0-1 0-5z" fill="#dd6c42" stroke="#dd6c42"/>
  <path d="m212 82v-1h1l1 1q2 1 2 1v1h2q2 1 3 2 1 0 3 0 1-2 3-1t3 1h1q-1 1-1 2t-1 1v1h-1q-1 0-8 2-6 2-8 4-1 2-3 2h-4l-1-1h-1v-1q-1 0-1 0 0-1-1-2h-1q0-1-1-1v-1h-1l-1-1h-1v-1h-1l-2-1-2-1 12-1q11-1 11-3-2-1-2-2z" fill="#73787c" stroke="#73787c"/>
  <path d="m644 211l2-1h2l2 2q2 1 3 2v3h-1q0-1-2-1-2-2-16 11l-14 12v1h-1v1h-1v1l-1 1-1 1-1 1h-1v-2h1v-1h1v-1h1v-1h1v-1h1v-1h1l5-8q6-8 7-8 2-1 2-2l4-4q3-4 3-4h1l2-1z" fill="#857d77" stroke="#857d77"/>
  <path d="m502 232h1l3 3q2 3 2 3h-1q-1 0-5 1h-6q-3 1-4 1t0 3v3q-1 0-4-3l-3-2 2-3q3-3 2-3 0-1 0-1h-1v-1q0-1 2-1h2q1 0 1-1t5 0q4 1 4 1z" fill="#e5d8c9" stroke="#e5d8c9"/>
  <path d="m841 751h14l1 1q0 2-2 3t-2 3 1 2q1 1 0 2-1 2-2 2h-1v2h4l1 1v1h-58v-2h2l1-1 1-1h1v-1h1v-1l9-4q9-6 12-6t17-1z" fill="#6f4d2f" stroke="#6f4d2f"/>
  <path d="m20 474l9-4v1q0 1-1 2 0 1 0 1h1l-7 4q-8 4-10 4h-2q0-1 1-2l1-1q0-1 8-5z" fill="#968f90" stroke="#968f90"/>
  <path d="m612 554v-1h1l6 9q6 9 9 12 4 3 5 5t2 2v1h1v2h1l2 1h2v1l-1 1h-4l-1-1h-2v-1h-1v-1q0-1-1-1-1-1-8-8t-9-14l-3-7h1z" fill="#d38055" stroke="#d38055"/>
  <path d="m475 462l6 1q7 1 6 2t0 1 1 0h2l2-1h2q1 1 2 1h3l-1 2q0 2-4 2-4-1-5 1-1 1-4 3-3 1-2 8 0 7-1 7t2 4q2 3 3 7 1 3 2 4l1 1v3l-1 1-1 1v1h-1v1h-3q-4 0-8-1-4 0-4 3 1 2-3 2-5 1-5 7v7l-1 1-1 1v-1q-1-1-2 0-1 0-1-1t-1 0q-2 0-1 1 0 1-1 1t-1-1q-1-1-2 1-1 3-2 7t-2 6q-1 1-4 3-3 1-3 3-2 2-2 7t1 6q1 2 2 2t1 1v1t0 1v3h-6v6h-1v-1l-1-1v-4h-1v-1h-1v-1q0-2-1-3t-6-1q-5-2-7-6-3-4-6-5l-3-1-1-1-1-1h1l3-1q3-1 3-2 1-2 2-2t3-5q1-5 2-10 1-4-1-6-1-2-2-2-2-1-3-15t-2-17 1-6q1-2 1-5 1-3 2-4l1-1q1 0 1-1 1 0 1-2v-2h1v-1l2-2q2-2 3-3 2 0 2 1 0 2 2 2t2 1q1 1 2-1 2-2 2-1 1 1 7 3t11 4q5 4 8 4 3 2 4 2h4v-2h-1t1-4q0-4 1-4t1-3v-5h1z" fill="#ddb28f" stroke="#ddb28f"/>
  <path d="m262 594v-1l4 1q5 0 8 1 2 1 3 1t2 0h6l-1 1q0 1 1 1 1 1 1 2 0 2 1 2t1 1h-6q-5 0-5-1t-4-2l-4-2h-1q-1 0-4-2-2-1-2-2z" fill="#8e7977" stroke="#8e7977"/>
  <path d="m40 237l2-4v1h1v1h1v7l-1 2q-1 2-6 2t-5 0-3-1l-3-1 2-1q3-1 6-1 4-1 6-5z" fill="#cdbeba" stroke="#cdbeba"/>
  <path d="m38 466l9-4h2v1l-1 1v1l-8 4q-9 5-10 5h-2t0-1q1-1 1-2v-1h1t8-4z" fill="#968f90" stroke="#968f90"/>
  <path d="m646 326v1q0 1 4 2t4 2h1v1h1l1 1 1 1 6 3q7 3 10 4 4 0 4 2t1 3v2h-1t0 1l2 3q2 3 3 5v2l-3-1q-2-2-3 5t-1 8v3h-1v1h-1v1h-1v-1h-1v-2h-1v-1h-1v-2q0-2-3-5t-4-8-5-5q-3-1-3-2 0-2-1-2-2 0-4-1t-1-5q1-5-3-6l-3-2t1-1q0-1 1-3v-3q1-1 1-1z" fill="#ea9e76" stroke="#ea9e76"/>
  <path d="m680 358l3 1 3 1q2 2 4 2h3l3 2q2 2 4 4 2 1 4 3t2 3v1l1 1v2l1 1 2 4q2 5 4 5 2 1 4 5t3 4v1h1v1l1 1q1 1 1 4v2h-1q-1 0-2-1h-1v3q-1 0-2-2 0-1-2-2-2-2-4-4l-1-3h-1l-1 1h-2v1h-1v2h-1v1q-1 0-1 6v7h-1v-1h-1v2h-1v1h-1v1h-6v-1h-1v-1h1v-5q0-5-1-11-1-7-3-9-3-1-7-7-4-5-7-5-2 1-5 3l-3 2v1h-1v1h-1l-1 1h-1v-4h2v-2h1v-1h1v-2q0-2 1-4l1-3v1h1v1h1v2h1v1h1v-1h1v-1h1v-3q0-1 1-8t3-5z" fill="#e6885b" stroke="#e6885b"/>
  <path d="m756 263h10l1 1h1l7 5q7 5 10 5 3 2 3 2h1v2l1 1v3l-1 3-1 3v-3l-1-1-1-1v-1q0-1-1-1 0-1-4-1-3-1-10 0-6 0-9 0-2 0-6 1t-4-1q0-3-5-4h-6l-1-1h-1v-1h8l1-2q2-2 4-4t3-3 1-2z" fill="#b38474" stroke="#b38474"/>
  <path d="m982 637l1-1h3q2 0 1 2t-1 2h2q1 0 2 0h1v1q0 1-2 2-3 1-15 9l-12 8v1h-1v1h-2l-1 1-1 1h-2l-1 1-1 1h-1v1h-1v1h-3v-2h2l1-1 1-1h1l1-1 1-1h2v-1h1v-1h1v-1h1v-1l9-6q9-7 9-7v-1h1l1-1 1-1h1v-1h1v-1h1v-2h-2t0-1z" fill="#64605c" stroke="#64605c"/>
  <path d="m136 569h4q0 1 0 1h2l8 4q7 4 8 5l8 4q8 5 10 5h1t1 1l15 8q15 7 16 8h1v1q1 0 2 1l1 1h1l1 1 1 1 12 6q11 6 12 6h1l1 2q2 0 2 1h2l30 16q30 17 31 17h1v1h1v1h2l1 1h1l44 24q43 24 59 32 15 9 16 9h1l1 1 2 1h-4v11h-1l-1-1h-1v-1h-1q0-1-2-1h-2q-1 0-20-11l-20-10-1-1h-2l-1-1-1-1h-1q-1 0-6-3-4-3-30-16l-25-13-1-1-1-1h-2l-1-1q-1-1-24-12l-22-12q-1-1-6-3l-6-3q-1-1-19-10l-18-9q-1-1-1-1-1-1-18-9l-16-8t-17-9l-17-8q-1-1-1-1-1 0-12-6l-11-6h-1v-2h2v-1h1v-1h1v-1h1v-1h1q1 0 1-1t1-1 1-2q1-1 4-1z" fill="#474948" stroke="#474948"/>
  <path d="m342 619l-4-4 4 2q4 2 8 4 5 2 5 3t1 1 2 5q0 6 0 7v3h-1v1h-1v12q0 9 0 10t-1 3l-1 3v1h-5v-1h1v-1h3v-2l-1-1v-3q0-2 0-16 0-15-2-18 0-3-3-4-2-2-5-5z" fill="#857c79" stroke="#857c79"/>
  <path d="m388 254h4t-22 9l-22 9h-2q-1 0-11 3l-10 3h-4v-1h-1v-2h2v-2h1v-1h1v-1h1v-1h1v-1l22-8q22-7 24-8l1-1h2v-1h1v-4h-1l-1-1h-1l-1 1h-1v-1q0-1 3 0 4 1 4 2 2 2 1 4-1 1 0 2 1 0 3 0t6 0z" fill="#bbadae" stroke="#bbadae"/>
  <path d="m507 238h1v1q-1 1 1 2h2q0 1-5 2l-4 1v1h-1v1q-1 0-1 2 0 3-1 3h-1q0-1-2-2l-2-1v-1l2-1q2-2 2-4t0-3h4q4-1 5-1z" fill="#d6c69f" stroke="#d6c69f"/>
  <path d="m708 398h1l1-1h1l1 3q2 2 4 4 2 1 2 2 1 2 2 2l1 11q1 11 2 14t1 4h1v1h1v2q0 1 1 2v1h-1q-1 0-1-1-1-1-7-7-8-6-10-7-2 0-3 3t-5 4l-3 1v1h-1v1h-3l-1 1h-2v-1h1v-1h1v-1h1v-1h1q0-1 1-5t-1-4q-2-1-2-3t1-2q1 1 1-1 1-1 0-1-2-1-1-1h3q1 0 2 0h2v-1h1v-1h1v-2h1v1h1v-7q0-6 1-6v-1h1v-2h1v-1h1z" fill="#d66440" stroke="#d66440"/>
  <path d="m945 705v1h-1q-1 0-2 0 0 0-2 0-3 0-4-2l-1-3h1v-1h2q3 0 4 2 0 1 1 2 1 0 2 1z" fill="#b0997f" stroke="#b0997f"/>
  <path d="m726 442t0 1h2v1h1l1-1 1-1h1v-4l1-2 1-2h2v1h1v-1h2q1 1 2 4 1 2 2 2 1-2 1-2 1 0 3 0h2v-1h1v5h-1q-1 1-1 6 0 4-2 4 0 0-1 5 0 5-2 5-2 1-1 4 0 3 1 4 1 0-1 1-1 0-1 1 0 2-1 2 0 1 1 2 1 0 2 1l1 1v2l-2 1h-3l-1-1h-3q-3 0-4 0t-1-1-4-3l-5-3h-1q0-1 0-3t-1-2-3 0q-2 2-4 0l-3-1v-1q-1-2-1-2v-1q0-1-2-2-1-1-4 0l-2 1q-1 0-1 1h-1q-2-1-3-2l-1-2v-1t-1 0v-1q-1-1-1-5l-1-4q-1-1 2-6l2-4h1v-1h1v-1l3-1q4-1 5-4t3-3q2 1 10 7 7 7 8 7zm-10 18q2 0 3 2t-2 2q-4 0-4-2t3-2z" fill="#633834" stroke="#633834"/>
  <path d="m935 700v1l1 3q1 2 4 2 2 0 3-1h1q0 1 0 1h1l1 2q2 2 4 2 1 0 1-1l3-1q4-2 4-2t1-2v-4q1 0 1 3v3h1v1l1 1v1l1-2q1-2 1-4v-2h2l1 1h1v6h2v-1l1-3 1-2h2l1 3q1 3 1 3l3 2q3 2 5 3 1 1 6 3 4 2 5 4 1 1 1 0 1-2 1 1 0 2 1 2t1-1 1-1 2 1q0 2 1 2t1 2q0 1 4 4 4 2 4 4 0 1 4 2t4 4q1 4 2 4t2 1v23h-77v-1l-1-1v-4h-1q-1 0-1-2t-1-2-1-2q0-1-1-1t-1-3-2-4h-4v-2h2q3 0 3 0h1v-3l-1-1q-1-2-1 0-2 1-3-5t-3-7q-2 0-4-1t-1-3-2-3-3-2 1-5l2-5q1 0 1-1h1q1 0 1-1l-1-1 1-1q0-1 3-1 3 1 3-2 0-4 1-4z" fill="#d1975b" stroke="#d1975b"/>
  <path d="m270 582l-4-2 6 1q6 1 8 3 3 2 4 1 2 0 2 1t2 1 2 1q1 0 2 0t2 2q0 2 8 3 7 1 14 4 8 3 12 3h4v1h1v1h4v1h1v1h1v1h-5q-6 1-12 1h-6v1l1 1h-3q-2 0-2 1 0 0-7-1-7 0-7-1t-5-3l-5-1q0-1-1-1t-1-2q0-1-1-2-1 0-1-1l1-1 1-1 1-1h-2v-1l-1-1v-1h-1v-1h-1v-2h-1q-1 0-5-2-3-2-6-4z" fill="#67504a" stroke="#67504a"/>
  <path d="m92 344l3-1v1h3v1h1v1h3l4-1q4-1 4 0t1 1h1l-1 2q-1 2-1 2h-1v1q-1 0-1 1 0 0-1 0v1l-3 1q-4 2-4 2h-1l-29 8q-29 8-30 9l-1 1h-2v-2h2v-2h-6l1-1 2-1h1q1 0 3-2t3-10l1-7h1v1h1v2q0 2 1 3l1 1h3v-1q1 0 1-1t1-1 2-2l1-2v1q0 1 1 0l1-1v-1h1v2l1 1v5h4l2-1q1-1 8-3l7-4h2l1-1 1-1h1q2 0 6-2z" fill="#606162" stroke="#606162"/>
  <path d="m440 420h4q5 0 5 1h-1q-2 1-1 1 1 1 0 2-1 0 0 1t-1 2q0 1-1 1v1h-1v1h-2l-2 1-2 1-5 2q-5 2-3 4 1 2 3 2t3 1v1l1 1v1h2q1 0 2 0 0 0 0 1h1v3h-2l-4 1q-3 1-4 3t-4 3q-4 1-4 2t-1 6l-1 5v2h-1v1h-1v1l1 2v1q-1 0-1 1l-1 1q-1 1-2 4 0 3-1 5-2 3-1 6t2 17 3 15q1 0 2 2 2 2 1 6-1 5-2 10-2 5-3 5t-2 2q0 1-3 2l-3 1h-1l1 1 1 1 3 1q3 1 6 5 2 4 7 6 5 0 6 1t1 3v1h1v1h1v4l1 1v2h-1v1h-4q-2 0-8 2t-7 3-6 3l-5 2h-4v1h-4q-1-1-2-3 0-2-2-2-1 0-8-5-6-4-9-13-3-8-7-7-5 1-7-6t-4-9q-3-1-3-12-2-12-2-14 0-3-2-11l-1-8v-1q-1-2-1-10t1-12 5-11 6-9q2-1 2-2t2-2 7-4q5-2 30-14l25-11 6-2q6-2 6-3z" fill="#ead6cc" stroke="#ead6cc"/>
  <path d="m676 478h2q2 1 3 2v3h-1v1h-2q-2 0-4 0t0-2l1-3q1 0 1-1z" fill="#d78385" stroke="#d78385"/>
  <path d="m572 544h1l-5 7q-4 7-10 12-5 5-9 7t-4 3-1 1h-1v-2q-1-1-1-2t-2-2q-2 0-2-1t-1-1h-1v1h-1v1h-5l1-1 1-1h1v-1h1v-1h2v-1l3-1q3 0 7-1 3-1 5-3t7-6q4-3 6-5t2-3 1 0v-1l1-1q0-1 1-1t1 1q1 2 2 2z" fill="#917258" stroke="#917258"/>
  <path d="m176 363h1l-11 5q-10 6-11 6h-1l-1 1-1 1v3h1v1h2v1h1l10 8q10 9 10 9h1l1 2q0 1 1 8 1 6 1 8v2l-1 32q-1 32-1 38v10q0 4-1 10v5l-1 3q-2 2-2 2v1l-2 2q-2 3-12 3-10 1-13 3-4 1-5 2h-1v2l-1 2v-17q0-14 1-38 1-23 2-60 1-38 2-40l1-1q1-1 1-1h1t10-5l10-4v-1h2q0-1 1-1h1v-1t1 0h1t2-1z" fill="#f0e2c6" stroke="#f0e2c6"/>
  <path d="m966 586l1-2 1 4q2 4 2 8 0 5 0 12t-3 12-3 12q-1 7 0 7l2 1h1l-1 1-1 1h-1q-1 0-2 1l-1 1h-1t-6 4l-6 4-1 1h-2l-1-1h-1v1h-1v-3h2v-3q0-1 0-1v1-1q0-1 2-5t5-9q3-4 5-10t1-10l-1-3q0-1 0-1 1 0 5-10l4-9q1 0 1-3z" fill="#9a9090" stroke="#9a9090"/>
  <path d="m633 338v2h-1q-2 0-4 0-1 0-2 1-2 1-4 0-1-1-4-1h-3v1h-1v-2h1q0-1 0-1 1 0 1-2t0-3q-1-1-2-1t-2 0q0-1 2-1 1-1 1-2l-1-2v-3q0-2 1-2h5q3 0 6 5 2 5 2 6 1 2 3 3 1 0 2 2z" fill="#cfa759" stroke="#cfa759"/>
  <path d="m106 84h7v3h-1l-1 1h-2l-1 1-1 1h-1q-1 0-15 8l-13 8h-1v1h-1v1h-1v1h-1v5h-6v-1l-1-3q0-4-1-4t-3 0h-2l-1 1-2 1h-2v-2h2v-1h1v-1h1v-1h1v-1h1l7-5q7-5 13-7 7-2 8-3l2-1h2l2-1 2-1h2q1 0 6 0z" fill="#68696c" stroke="#68696c"/>
  <path d="m805 702v-8l1 7q1 7 3 8 2 0 2 1t-3 2q-3 2-3 2 1 1 0 2v2h-2l2 1 2 1h5q4 0 14 1h10v1h-7l-23 1h-22q0-1-1-1h-1l-4-1-4-1h2l3-1 3-1h6q6-1 8-4 1-2 4-4t4-1q1 0 1-7z" fill="#7c6b5c" stroke="#7c6b5c"/>
  <path d="m598 510h1v2l1 1v3l2 6q2 6 3 8l1 1v1h2v1q0 1 0 1h1l-1 1q0 1 0 1l2 6q2 6 2 8v1l1 1v1h-1v1h-2t-2-1q-1-1-1-2l-1-1v1l-1 3q-1 2-1 8v6l-1-1-1-1v-5q0-5-3-11l-3-5v-1q0-1-2-7t-1-16l1-10h1q1 0 1-1 1 0 2 0z" fill="#b57958" stroke="#b57958"/>
  <path d="m708 463v3q0 1 1 1v1q-1 1-6 2h-5v-2h2q1 0 3-2t-1-3h-3v-1q0-1 4-1 4 1 4 1 1 0 1 1z" fill="#9d5959" stroke="#9d5959"/>
  <path d="m812 275h2l4 3q4 2 6 2t3 0 1 1h1v1q1 1 1 1v4q0 4 4 6 3 3 8 3t5 1v1h-1q-2-1 0 4 2 4 4 6 3 0 4 1l1 1h1v4h-4q-3 0-4 1-2 2-4 2-3 1-7 1t-4 2q0 1-1 1l-1 1h-1l-2 1h-2v4h-1v1h-4v1h-1v2l1 1 1 1v6l-1 1-1 1v3h1l1 1 1 1h4q4 0 5-1l2-1h1v1h1v7h-10v1t1 1v2q-1 1-1 1 0 1 0 1h-1q-1 0-9-4-7-4-13-2t-16 8l-10 7h-1q0 1 0 1-1 0-1 1-1 0-1-1t-2 0q-2 0-3-2t-1-1q-1 1-3-1-2-1-2-2v-1h-3v-1h1q1 0 2-1l1-1h1t-1-4l-1-2v-1h-1v-1h2v-1h1v-1h1l1 2q2 2 3 1h1v-2q-1-2-1-3 0 0 1-2 0-2 1-2t1-4q-1-5 3-13t4-11v-8h-1q-1 0-2 2l-1 1h-1v1h-2v-1l1-1v-1h1v-1h2l4-6q5-5 5-8 2-2 2-3v-1l1-3 1-3v-3l-1-1v-2h3l5 1q5 1 7-1 1-4 4-2 2 0 4 1zm-31 29t0-1q1 0 1 1 0 0-1 0z" fill="#dbb08b" stroke="#dbb08b"/>
  <path d="m617 314v-1l5 1q5 0 5 1t5 3q4 2 4 2h1l-1 2q0 2 2 3 3 1 4 2l2 1h1v2q-1 2-1 3-1 1-1 1h-1q-1 0-2 1-2 1-2 2v1l-1 1v1h-4v-2q-1-2-2-2-2-1-3-3 0-1-2-6-3-5-6-5h-4l-2-1-1-1h1q1 0 1-2 1-2 1-3v-1h1z" fill="#e5c89d" stroke="#e5c89d"/>
  <path d="m863 387v-1l2 2q3 2 5 8 4 6 5 8t2 6q1 5 1 6v8q-1 0-2 2 0 2-4 6-3 4-9 5t-7 0q0-1-6 0-7 1-12 5-6 5-6 8-1 4-2 4-2 0-8 2-5 2-7 2-3 1-10 2-7 0-14 4l-7 2h-1v-1h-1v-1t-1-1-5-7q-4-5-5-6-2 0-7-1t-6 1l-1 2h-2v-1h-1v-2l-1-3v-6l1-2v-1h1v-1h1v-1l1-1q1-1 1-2t-2-4-3-8l-1-6t0-4l1-3h1v-4l1-3q1-3 1-6l2-2v-2h1v2l1 1v2l5 1q5 0 7 4t2 14 2 10 3 4q2 4 7 8 6 6 10 6 5 0 7 0t11 0q9-2 13-5 3-4 8-11 5-6 7-8 3-2 6-2 2 0 5 0t5 1q3 1 4 0h1v-1q1-1 1-14 1-14 0-14t-1-1z" fill="#e7bf9b" stroke="#e7bf9b"/>
  <path d="m384 716v-1l20 10q19 11 20 11h1l1 2q2 1 2 2v1h1v1h-1l-4 1h-3v-1h-2q-1 0-2-1l-1-1h-2l-1-1q-1-1-15-9l-13-8h-1q-1 0-2-1v-3h2v-2z" fill="#8a7f79" stroke="#8a7f79"/>
  <path d="m52 257v5l1 2v8q1 6 0 10l-1 3v9l-1-5q-1-5-1-7l-1-2q-1-1-1-4v-3l1-1 1-2v-2l1-6q1-5 1-5z" fill="#b6aaab" stroke="#b6aaab"/>
  <path d="m856 312v-1t1 3v3h-1q0 1-2 1-1 0-2 2l-2 2v10h-2l-2-1q-3-1-3-1-1 0-4-1-4-1-9-1h-5v-1h1v-4h2l2-1h1l1-1q1 0 1-1 0-2 4-2t7-1q2 0 1-2-1-3 1-2t2 1q1 0 4 0h4v-2z" fill="#d2a57c" stroke="#d2a57c"/>
  <path d="m57 337l4-6v1h1l-1 6q-1 5-1 6 0 2-1 3v1h-1v1l-1 1q-1 1-1 0v-1l-1 2q-1 2-2 2t-1 1-1 1v1h-3l-1-1q-1-1-1-3v-2h-1v-1h-1v-8h1v1h1v1l1 1v1h3l2-1h1t4-7z" fill="#72757a" stroke="#72757a"/>
  <path d="m270 461q-1-2 5-1 6 0 8 1t1 3q0 2-6 0-6 0-8-3z" fill="#eb935f" stroke="#eb935f"/>
  <path d="m710 486l-1-2h3l2 2q2 2 3 2t1 6v7l-1 1-1 2v3h-1l-1 1h-2v-1h-1v-1h-1v-5l1-3q1-2 1-6 0-5-2-6z" fill="#b03f35" stroke="#b03f35"/>
  <path d="m173 140v-1h1q0 1 0 1h1v3h1l1 1h1q1 0 1 1t1 1 2 2 6 2q6 0 8 0h2v4h-1v1h1v2l-1 1v1h7l1 1h20l-5 1-4 1h-8q-7 0-24 0t-29 0l-12-2h-8v-1h5q6-1 9-1h3v-10q0-3-1-4l-1-1v-1h-2v-1h-1v-1h3l1 1h1v1h1t1 1h2l3 1 6-1q6-1 7-2 0-1 1-1z" fill="#aca894" stroke="#aca894"/>
  <path d="m302 145h8q8 1 10 1h3v-1h1v4l-1 1q0 1-1 1t-2 5q-2 5 0 8 2 2 5 4 3 0 3 0t1 1l1 1v2l-2 4q-2 4-5 7t-3 9v6t-8 6l-6 6h-1v1h-1v1h-2v1h-1v1h-1t0 1q-1 1-1 1h-1t-5 4l-5 4h-1q-1 0-7 4t-8 9l-1 5v17q1 17 2 18 2 1 3 2l1 1h-1v1h-1v1h-1v1t-31 12l-31 13h-2l-1 1h-1t-24 9q-23 8-34 12-11 3-12 1 0-2-4-2-3-1-18 5l-16 6-1 1-1 1h-2v1h-1l-3 1q-4 2-6 2h-4v-2h-4v-1h1v-1h1v-2h1t2-4q1-4 3-8 2-5 7-11 5-5 11-9 6-2 8-5t4-6q3-3 4-5 2-2 2-6v-6q0-2-1-12l-1-11v-5q0-5-1-9t-1-5q-2-2-10-6l-8-5v-1t-10-6l-9-6-1-1v-1h-1v-1h-1v-1h-1v-1h-1v-1h-1v-1h-1v-2h-1v-1h1v-2l1-1v-1h3l2-1q1-1 6-3 6-2 8-20 2-17 15-18h16q3 0 7 1h3v1h8l12 2q12 0 29 0t24 0h8l4-1 5-1 23-3q22-3 37-7t17-5z" fill="#2d3335" stroke="#2d3335"/>
  <path d="m252 565q1 1 2 1v-1l1 1 1 1v1h1l3 4q2 3 4 5 1 3 2 3 0 0 1 1h1q0 1 1 1h1l5 3q5 3 6 3h1v2h1v1h1v1l1 1v1h2l-1 1-1 1h-6q-1 0-2 0t-7-1l-7-1q-1-1-1-1-1-1-4-3-2-3-3-3t-1-1-2-4q-2-2-2-4v-2t0-4q0-3 0-4l-1-2h3t0-1zm0 3t1 0-1 0z" fill="#725650" stroke="#725650"/>
  <path d="m70 364l29-8-1 2q0 1 1 1 1 1-10 5t-13 4h-1l-1 1-1 1-16 5q-16 5-17 5t-2 1l-2 1h-2l-1 1-1 1-12 4q-11 4-12 4h-1l-1 1-2 1h-2l-1 1h-1v-6l1-1h1l2-1 1-1h1q1 0 16-6l15-6h1t0-1h2q1-1 30-9z" fill="#4b4e4b" stroke="#4b4e4b"/>
  <path d="m453 246h1q1 0 3 1h2l4 1q4 2 4 2h-1t0 1l-1 1q-1 0-1 2v1h18l1 1q1 2 2 2h2v-1h1v1l2 1q2 1 2 3 0 3 6 4 6 2 8 0 3-2 4-2 2 0 3 1l1 1q1 0 2 1v1l1 1v1h-1q-1 0-3 2l-1 1v5h5v-1h1v-1q2-1 2-2l1-1q1-1 4 0t2 1 0-1l1 1q2 0 2 2t4 4q3 2 8 5 4 3 6 3 0 0 3 2 3 1 3 2t8 6q8 6 8 4 1-2 2 0 0 1 2 2 2 0 3 2 1 3 2 4l1 1v1h1t1 1q0 1 0 1h1v2q-1 3-2 6t-1 5-8 5q-7 2-12 6l-4 4h-1v1h-1v1h-2v-2h1v-1q1 0 1-1v-2h-1v-1h-1v-1h-1q-1 0-1-2 0-1-1-1-1-1-7-1-7 0-19 1t-17-1-8 0q-4 2-4 3t-1 1-1 4q0 3-1 4-1 0-3 1-3 1-8 3-4 4-8 5-5 1-12 4-8 3-10 2h-2q-1 1-1 1h-2l-1 1-1 1q-1 0-3 2-2 3-2 3h-2q0-1-6-7l-6-6v-1h-1v-1q-1 0-6-4l-5-4h-2l-1-1-1-1h-1v-1h3q2-1 4-1 3-1 7-6 3-5 3-9t-5-11l-5-8v-1l-1-1-1-2v-6q0-3 1-4 1 0 3-8t2-10q1-2 18-7 18-5 20-8t1-7q0-3-2-4-2-2-2-2z" fill="#e9bc8f" stroke="#e9bc8f"/>
  <path d="m652 217h1v1q-1 2-1 3t-11 13l-11 13q-1 1-1 1h-1t0 1q-1 1-1 1h-1t0 1q-1 1-1 1h-1t0 1q-1 1-4 3l-3 2h-15v-2h1v-1h1v-1h1v-1h1v-1h1l3-4q3-2 4-3 0 0 1-1 1 0 1 0v-1q1-1 1-1h1v-1h1v-1h1v-1l14-12q14-13 16-11 2 0 2 1z" fill="#584d3d" stroke="#584d3d"/>
  <path d="m496 239h2q0 1 0 3t-2 4l-2 1h-1q-1-1-1-1v-3q-1-3 0-3t4-1z" fill="#b0b27b" stroke="#b0b27b"/>
  <path d="m244 719h6q2 0 2 2 0 1-1 2-1 0-1 3 1 2 4 4t3 2q-1 0-1 0v1q-1 1-2 1h-3v1h1v1l1 3q0 3 1 6 2 4 3 4 1 1 0 1t-1 1 1 1 1 2q0 1-1 2-1 0-2 1 0 1-2 1-2 1-2 2l-1 2v1l-1 1v1h1l1-1h1v2h1v1h1v1h-80l-1-1-1-1h-1v-1h-1v-2h1l1-1h2q2 0 2-3t0-5 1 0q1 1 3 0t3-4q1-2 5-4 4-1 4-2t2-1q1 1 0-1 0-1 2-2 3 0 4 0 0 1 3 0 3-2 2-2-1-1 0-3t2-2q1 1 2 0t2-2 1-1q1-1 1-2-1-2 2-2t5-2q1-2 4-1 4 1 5-1 1-1 3 0 1 0 5-1t7-2zm-29 9q1 0 1 0-1 0-1 0z" fill="#d9a161" stroke="#d9a161"/>
  <path d="m25 122h2l5 4q6 4 6 4v1l-2 1q-2 0 1 4t4 6 2 2 1 1v1h-1q-1 0-2-2l-1-1h-1v-1h-1l-1-1q-1 0-1-1t-2-2l-2-1q-1-1-3-4l-3-3v-1h-1q0-1-1-2l-1-1v-2q1-2 2-2z" fill="#9a8577" stroke="#9a8577"/>
  <path d="m240 511v2q1 2 2 2 1 1 1 1v1l-1 4q0 3 0 4l-2 7q0 6 0 7v3q0 1 0 3v2q-1-1-2-2v-2h-1v-1h-1v-6q0-7 0-11v-6h1v-1h1v-2h1v-3q1-2 1-2z" fill="#aea09f" stroke="#aea09f"/>
  <path d="m633 220h1q0 1-2 2-1 0-7 8l-5 8h-1v1h-1v1h-1v1h-1v2q-1 1-1 1h-1t0 1q-1 1-4 3l-3 4h-1v1h-1v1h-1v1h-1v1h-1v2h15l-11 1h-11v-1h-1v-2l1-1 1-1v-1h1v-1h1l11-12q11-11 11-12t6-4q6-4 7-4z" fill="#8f8783" stroke="#8f8783"/>
  <path d="m56 162l-1-3 5 5q4 4 3 5t0 1 1 2q0 1-1 1-1 1 2 2t3 2 3 3 6 3q3 0 3 4t-1 6q-1 3-2 3-1 1-1 1v1h-1v1h-1v1l-1 2v3h1v2h1v1h1v1h1v1h1v1h1v1h1v1l1 1h-2l-1-1-1-1h-1v-1h-1v-1h-1v-1h-1v-1q-1 0-1 0 0-1-1-1v-1q-1 0-1 0 0-1-1-1v-1q-1 0-1 0 0-1-1-1v-1q-1 0-1 0v-2q0-3 0-5t-6-9l-7-7v-1q-1 0-1 0v-1l1-3 1-3v-2h1v-1h1v-2h1v-1q1 0-1-3z" fill="#726a61" stroke="#726a61"/>
  <path d="m392 254h5v1h1v3l-1 2q-1 2-1 2-1 0-32 14l-30 14-1 1h-1v-1h1v-1h1v-1h-6l2-1 1-1 7-3q7-3 8-6 2-2 3-3 1 0 1-1t-1-1h-1l22-9q22-9 22-9z" fill="#555552" stroke="#555552"/>
  <path d="m654 225v1q0 1-1 2-1 2-2 2t-4 5q-3 4-9 9t-6 6q0 2-1 2t-1 1v1h-1v1h-1v1l-1 1-1 1 1 1 1 1h2v1h-8v-4h1v-1h1q0-1 1-2v-1h1v-1h1v-1h1v-1h1v-1h1v-1h1v-1q1 0 1-1 0 0 1 0v-1q1 0 1-1 0 0 1 0v-1q1 0 1-1 0 0 1 0v-1l8-8q8-7 9-8z" fill="#edcda0" stroke="#edcda0"/>
  <path d="m60 41h2v3l-2 3q-1 3-1 3h-1v1q-1 1-1 1h-1t0 1q-1 1-2 1l-2 1t-1 1h-1q-1 0-4 2l-2 2-3 2q-3 2-4 2l-1 1-1 1h-2v1h-1v1h-2v-2h2v-3h1v-1h1t0-5l-1-4v-7l1-2 1-4q2-3 5-4 4 0 10 2 7 2 10 3z" fill="#dfd1d2" stroke="#dfd1d2"/>
  <path d="m722 264h2l2-1q3 0 3 2v3q-1 0-1 0l-1 1h-1q0 1 0 1-1 0-1 1h-1q0 1 0 1-1 0-4-1-4 0-4 1v3q1 3 1 3h-1t0 1q-1 1-4 2l-3 1-1 1-1 1h-2l-1 1-1 1h-2v-2l1-2v-1h-1v-1h1v-1l1-3q1-2 1-2v-1l6-3q5-2 7-4t2-2h3z" fill="#6b4b3f" stroke="#6b4b3f"/>
  <path d="m67 110l1 3v1h11v1q0 1-3 1h-6q-5 0-12-1l-7-1t-1-1l-1-1h1q1 0 4-2l2-2q1 0 1-1h2l2-1h2q2 0 3 0t1 4z" fill="#9a928e" stroke="#9a928e"/>
  <path d="m120 284l2-3v5q0 4-2 6-1 2-4 5-2 3-4 6t-8 5q-6 4-11 9-5 6-7 11-2 4-3 8-2 4-2 4h-1v2h-1v1h-1v1h4v2h3l-1 1-1 1h-2l-7 4q-7 2-8 3l-2 1h-4v-5l-1-1v-3q1-1 1-3 0-1 1-6l1-6h1v-1h1v-1l1-1q1-1 2-4t9-12l8-9q1 0 1-1h1v-1h1q1 0 17-8 15-8 16-10z" fill="#3f4649" stroke="#3f4649"/>
  <path d="m774 251h1l18 4q17 4 19 5 2 2 3 2v1l-1 3q0 3 0 4t1 1v1h1v1h-1v1h-1v1h-2q-2-1-4-1-3-2-4 2-2 2-7 1l-5-1h-4t-3-2q-3 0-10-5l-7-5h-1l-1-1h-1v-1h2q2 0 2-1 1 0 1-1h2q1 0 0-2 0-2-1-2-1-1 1-3 1-1 2-2z" fill="#d3a58d" stroke="#d3a58d"/>
  <path d="m192 91h5l1 1h1q1 0 1 1v1h-1q-1 0-3 0t-2 3q0 4-5 4l-5 1-4-1h-5v-1h3l3-1q3-1 3-3 0-1 2-3 1-1 6-2z" fill="#aaaba5" stroke="#aaaba5"/>
 </g>
</svg>
